<svg xmlns="http://www.w3.org/2000/svg" xmlns:xlink="http://www.w3.org/1999/xlink" version="1.1" class="marks" width="498" height="214" viewBox="0 0 498 214"><rect width="498" height="214" fill="white"/><g fill="none" stroke-miterlimit="10" transform="translate(24,10)"><g class="mark-group role-frame root" role="graphics-object" aria-roledescription="group mark container"><g transform="translate(0,0)"><path class="background" aria-hidden="true" d="M0.5,0.5h468v182h-468Z" stroke="#ddd"/><g><g class="mark-group role-axis" aria-hidden="true"><g transform="translate(0.5,182.5)"><path class="background" aria-hidden="true" d="M0,0h0v0h0Z" pointer-events="none"/><g><g class="mark-rule role-axis-grid" pointer-events="none"><line transform="translate(0,-182)" x2="0" y2="182" stroke="#ddd" stroke-width="1" opacity="1"/><line transform="translate(33,-182)" x2="0" y2="182" stroke="#ddd" stroke-width="1" opacity="1"/><line transform="translate(67,-182)" x2="0" y2="182" stroke="#ddd" stroke-width="1" opacity="1"/><line transform="translate(100,-182)" x2="0" y2="182" stroke="#ddd" stroke-width="1" opacity="1"/><line transform="translate(134,-182)" x2="0" y2="182" stroke="#ddd" stroke-width="1" opacity="1"/><line transform="translate(167,-182)" x2="0" y2="182" stroke="#ddd" stroke-width="1" opacity="1"/><line transform="translate(201,-182)" x2="0" y2="182" stroke="#ddd" stroke-width="1" opacity="1"/><line transform="translate(234,-182)" x2="0" y2="182" stroke="#ddd" stroke-width="1" opacity="1"/><line transform="translate(267,-182)" x2="0" y2="182" stroke="#ddd" stroke-width="1" opacity="1"/><line transform="translate(301,-182)" x2="0" y2="182" stroke="#ddd" stroke-width="1" opacity="1"/><line transform="translate(334,-182)" x2="0" y2="182" stroke="#ddd" stroke-width="1" opacity="1"/><line transform="translate(368,-182)" x2="0" y2="182" stroke="#ddd" stroke-width="1" opacity="1"/><line transform="translate(401,-182)" x2="0" y2="182" stroke="#ddd" stroke-width="1" opacity="1"/><line transform="translate(435,-182)" x2="0" y2="182" stroke="#ddd" stroke-width="1" opacity="1"/><line transform="translate(468,-182)" x2="0" y2="182" stroke="#ddd" stroke-width="1" opacity="1"/></g></g><path class="foreground" aria-hidden="true" d="" pointer-events="none" display="none"/></g></g><g class="mark-group role-axis" aria-hidden="true"><g transform="translate(0.5,0.5)"><path class="background" aria-hidden="true" d="M0,0h0v0h0Z" pointer-events="none"/><g><g class="mark-rule role-axis-grid" pointer-events="none"><line transform="translate(0,162)" x2="468" y2="0" stroke="#ddd" stroke-width="1" opacity="1"/><line transform="translate(0,121)" x2="468" y2="0" stroke="#ddd" stroke-width="1" opacity="1"/><line transform="translate(0,81)" x2="468" y2="0" stroke="#ddd" stroke-width="1" opacity="1"/><line transform="translate(0,40)" x2="468" y2="0" stroke="#ddd" stroke-width="1" opacity="1"/><line transform="translate(0,0)" x2="468" y2="0" stroke="#ddd" stroke-width="1" opacity="1"/></g></g><path class="foreground" aria-hidden="true" d="" pointer-events="none" display="none"/></g></g><g class="mark-group role-axis" role="graphics-symbol" aria-roledescription="axis" aria-label="X-axis for a linear scale with values from −4 to 4"><g transform="translate(0.5,182.5)"><path class="background" aria-hidden="true" d="M0,0h0v0h0Z" pointer-events="none"/><g><g class="mark-rule role-axis-tick" pointer-events="none"><line transform="translate(0,0)" x2="0" y2="5" stroke="#888" stroke-width="1" opacity="1"/><line transform="translate(33,0)" x2="0" y2="5" stroke="#888" stroke-width="1" opacity="1"/><line transform="translate(67,0)" x2="0" y2="5" stroke="#888" stroke-width="1" opacity="1"/><line transform="translate(100,0)" x2="0" y2="5" stroke="#888" stroke-width="1" opacity="1"/><line transform="translate(134,0)" x2="0" y2="5" stroke="#888" stroke-width="1" opacity="1"/><line transform="translate(167,0)" x2="0" y2="5" stroke="#888" stroke-width="1" opacity="1"/><line transform="translate(201,0)" x2="0" y2="5" stroke="#888" stroke-width="1" opacity="1"/><line transform="translate(234,0)" x2="0" y2="5" stroke="#888" stroke-width="1" opacity="1"/><line transform="translate(267,0)" x2="0" y2="5" stroke="#888" stroke-width="1" opacity="1"/><line transform="translate(301,0)" x2="0" y2="5" stroke="#888" stroke-width="1" opacity="1"/><line transform="translate(334,0)" x2="0" y2="5" stroke="#888" stroke-width="1" opacity="1"/><line transform="translate(368,0)" x2="0" y2="5" stroke="#888" stroke-width="1" opacity="1"/><line transform="translate(401,0)" x2="0" y2="5" stroke="#888" stroke-width="1" opacity="1"/><line transform="translate(435,0)" x2="0" y2="5" stroke="#888" stroke-width="1" opacity="1"/><line transform="translate(468,0)" x2="0" y2="5" stroke="#888" stroke-width="1" opacity="1"/></g><g class="mark-text role-axis-label" pointer-events="none"><text text-anchor="start" transform="translate(0,15)" font-family="sans-serif" font-size="10px" fill="#000" opacity="1">−3.5</text><text text-anchor="middle" transform="translate(33.42857142857142,15)" font-family="sans-serif" font-size="10px" fill="#000" opacity="1">−3.0</text><text text-anchor="middle" transform="translate(66.85714285714285,15)" font-family="sans-serif" font-size="10px" fill="#000" opacity="1">−2.5</text><text text-anchor="middle" transform="translate(100.28571428571428,15)" font-family="sans-serif" font-size="10px" fill="#000" opacity="1">−2.0</text><text text-anchor="middle" transform="translate(133.7142857142857,15)" font-family="sans-serif" font-size="10px" fill="#000" opacity="1">−1.5</text><text text-anchor="middle" transform="translate(167.14285714285714,15)" font-family="sans-serif" font-size="10px" fill="#000" opacity="1">−1.0</text><text text-anchor="middle" transform="translate(200.57142857142856,15)" font-family="sans-serif" font-size="10px" fill="#000" opacity="1">−0.5</text><text text-anchor="middle" transform="translate(234,15)" font-family="sans-serif" font-size="10px" fill="#000" opacity="1">0.0</text><text text-anchor="middle" transform="translate(267.4285714285714,15)" font-family="sans-serif" font-size="10px" fill="#000" opacity="1">0.5</text><text text-anchor="middle" transform="translate(300.8571428571429,15)" font-family="sans-serif" font-size="10px" fill="#000" opacity="1">1.0</text><text text-anchor="middle" transform="translate(334.2857142857143,15)" font-family="sans-serif" font-size="10px" fill="#000" opacity="1">1.5</text><text text-anchor="middle" transform="translate(367.7142857142857,15)" font-family="sans-serif" font-size="10px" fill="#000" opacity="1">2.0</text><text text-anchor="middle" transform="translate(401.1428571428571,15)" font-family="sans-serif" font-size="10px" fill="#000" opacity="1">2.5</text><text text-anchor="middle" transform="translate(434.5714285714286,15)" font-family="sans-serif" font-size="10px" fill="#000" opacity="1">3.0</text><text text-anchor="end" transform="translate(468,15)" font-family="sans-serif" font-size="10px" fill="#000" opacity="1">3.5</text></g><g class="mark-rule role-axis-domain" pointer-events="none"><line transform="translate(0,0)" x2="468" y2="0" stroke="#888" stroke-width="1" opacity="1"/></g></g><path class="foreground" aria-hidden="true" d="" pointer-events="none" display="none"/></g></g><g class="mark-group role-axis" role="graphics-symbol" aria-roledescription="axis" aria-label="Y-axis for a linear scale with values from −2 to 3"><g transform="translate(0.5,0.5)"><path class="background" aria-hidden="true" d="M0,0h0v0h0Z" pointer-events="none"/><g><g class="mark-rule role-axis-tick" pointer-events="none"><line transform="translate(0,162)" x2="-5" y2="0" stroke="#888" stroke-width="1" opacity="1"/><line transform="translate(0,121)" x2="-5" y2="0" stroke="#888" stroke-width="1" opacity="1"/><line transform="translate(0,81)" x2="-5" y2="0" stroke="#888" stroke-width="1" opacity="1"/><line transform="translate(0,40)" x2="-5" y2="0" stroke="#888" stroke-width="1" opacity="1"/><line transform="translate(0,0)" x2="-5" y2="0" stroke="#888" stroke-width="1" opacity="1"/></g><g class="mark-text role-axis-label" pointer-events="none"><text text-anchor="end" transform="translate(-7,164.77777777777777)" font-family="sans-serif" font-size="10px" fill="#000" opacity="1">−1</text><text text-anchor="end" transform="translate(-7,124.33333333333334)" font-family="sans-serif" font-size="10px" fill="#000" opacity="1">0</text><text text-anchor="end" transform="translate(-7,83.88888888888889)" font-family="sans-serif" font-size="10px" fill="#000" opacity="1">1</text><text text-anchor="end" transform="translate(-7,43.44444444444444)" font-family="sans-serif" font-size="10px" fill="#000" opacity="1">2</text><text text-anchor="end" transform="translate(-7,3)" font-family="sans-serif" font-size="10px" fill="#000" opacity="1">3</text></g><g class="mark-rule role-axis-domain" pointer-events="none"><line transform="translate(0,182)" x2="0" y2="-182" stroke="#888" stroke-width="1" opacity="1"/></g></g><path class="foreground" aria-hidden="true" d="" pointer-events="none" display="none"/></g></g><g class="mark-group role-scope pathgroup" role="graphics-object" aria-roledescription="group mark container"><g transform="translate(0,0)"><path class="background" aria-hidden="true" d="M0,0h468v182h-468Z"/><g><g class="mark-line role-mark marks" role="graphics-object" aria-roledescription="line mark container"><path aria-label="t: −3.14159265359; value: 0.132390160369; Species: Adelie; sample: 0" role="graphics-symbol" aria-roledescription="line mark" d="M23.962,115.979L28.205,116.675L32.448,117.372L36.692,118.079L40.935,118.806L45.178,119.562L49.421,120.353L53.664,121.188L57.908,122.071L62.151,123.006L66.394,123.995L70.637,125.039L74.88,126.138L79.124,127.287L83.367,128.482L87.61,129.716L91.853,130.982L96.096,132.268L100.34,133.564L104.583,134.856L108.826,136.13L113.069,137.371L117.312,138.563L121.555,139.689L125.799,140.733L130.042,141.677L134.285,142.505L138.528,143.201L142.771,143.749L147.015,144.136L151.258,144.348L155.501,144.373L159.744,144.203L163.987,143.829L168.231,143.246L172.474,142.45L176.717,141.44L180.96,140.219L185.203,138.789L189.447,137.157L193.69,135.332L197.933,133.326L202.176,131.151L206.419,128.822L210.662,126.359L214.906,123.779L219.149,121.103L223.392,118.354L227.635,115.554L231.878,112.728L236.122,109.899L240.365,107.091L244.608,104.329L248.851,101.636L253.094,99.035L257.338,96.547L261.581,94.194L265.824,91.993L270.067,89.961L274.31,88.115L278.553,86.466L282.797,85.024L287.04,83.799L291.283,82.795L295.526,82.015L299.769,81.461L304.013,81.129L308.256,81.016L312.499,81.115L316.742,81.417L320.985,81.912L325.229,82.586L329.472,83.426L333.715,84.416L337.958,85.54L342.201,86.78L346.445,88.119L350.688,89.539L354.931,91.02L359.174,92.547L363.417,94.101L367.66,95.666L371.904,97.227L376.147,98.77L380.39,100.282L384.633,101.752L388.876,103.171L393.12,104.531L397.363,105.827L401.606,107.054L405.849,108.211L410.092,109.298L414.336,110.317L418.579,111.27L422.822,112.163L427.065,113.002L431.308,113.794L435.552,114.548L439.795,115.273L444.038,115.979" stroke="#4c78a8" stroke-width="2" opacity="0.5"/></g></g><path class="foreground" aria-hidden="true" d="" display="none"/></g><g transform="translate(0,0)"><path class="background" aria-hidden="true" d="M0,0h468v182h-468Z"/><g><g class="mark-line role-mark marks" role="graphics-object" aria-roledescription="line mark container"><path aria-label="t: −3.14159265359; value: 0.0514429116596; Species: Adelie; sample: 1" role="graphics-symbol" aria-roledescription="line mark" d="M23.962,119.253L28.205,119.428L32.448,119.591L36.692,119.755L40.935,119.934L45.178,120.138L49.421,120.379L53.664,120.667L57.908,121.01L62.151,121.415L66.394,121.886L70.637,122.427L74.88,123.04L79.124,123.722L83.367,124.471L87.61,125.282L91.853,126.149L96.096,127.061L100.34,128.009L104.583,128.98L108.826,129.961L113.069,130.936L117.312,131.89L121.555,132.805L125.799,133.665L130.042,134.453L134.285,135.151L138.528,135.742L142.771,136.211L147.015,136.542L151.258,136.722L155.501,136.738L159.744,136.579L163.987,136.238L168.231,135.708L172.474,134.985L176.717,134.067L180.96,132.955L185.203,131.652L189.447,130.164L193.69,128.5L197.933,126.671L202.176,124.689L206.419,122.57L210.662,120.332L214.906,117.993L219.149,115.575L223.392,113.099L227.635,110.588L231.878,108.066L236.122,105.557L240.365,103.085L244.608,100.674L248.851,98.348L253.094,96.127L257.338,94.035L261.581,92.09L265.824,90.311L270.067,88.713L274.31,87.311L278.553,86.115L282.797,85.135L287.04,84.377L291.283,83.845L295.526,83.539L299.769,83.459L304.013,83.6L308.256,83.956L312.499,84.516L316.742,85.269L320.985,86.203L325.229,87.302L329.472,88.548L333.715,89.924L337.958,91.411L342.201,92.988L346.445,94.635L350.688,96.332L354.931,98.059L359.174,99.795L363.417,101.522L367.66,103.221L371.904,104.877L376.147,106.473L380.39,107.997L384.633,109.437L388.876,110.783L393.12,112.028L397.363,113.167L401.606,114.196L405.849,115.115L410.092,115.925L414.336,116.63L418.579,117.235L422.822,117.746L427.065,118.173L431.308,118.525L435.552,118.815L439.795,119.053L444.038,119.253" stroke="#4c78a8" stroke-width="2" opacity="0.5"/></g></g><path class="foreground" aria-hidden="true" d="" display="none"/></g><g transform="translate(0,0)"><path class="background" aria-hidden="true" d="M0,0h468v182h-468Z"/><g><g class="mark-line role-mark marks" role="graphics-object" aria-roledescription="line mark container"><path aria-label="t: −3.14159265359; value: −0.0912208165276; Species: Adelie; sample: 2" role="graphics-symbol" aria-roledescription="line mark" d="M23.962,125.023L28.205,126.439L32.448,127.797L36.692,129.093L40.935,130.322L45.178,131.482L49.421,132.568L53.664,133.577L57.908,134.505L62.151,135.349L66.394,136.107L70.637,136.776L74.88,137.354L79.124,137.837L83.367,138.225L87.61,138.516L91.853,138.708L96.096,138.8L100.34,138.79L104.583,138.679L108.826,138.466L113.069,138.151L117.312,137.734L121.555,137.215L125.799,136.596L130.042,135.879L134.285,135.064L138.528,134.153L142.771,133.151L147.015,132.058L151.258,130.88L155.501,129.618L159.744,128.279L163.987,126.866L168.231,125.384L172.474,123.839L176.717,122.237L180.96,120.583L185.203,118.885L189.447,117.149L193.69,115.383L197.933,113.594L202.176,111.789L206.419,109.977L210.662,108.166L214.906,106.363L219.149,104.577L223.392,102.817L227.635,101.089L231.878,99.403L236.122,97.767L240.365,96.187L244.608,94.672L248.851,93.229L253.094,91.865L257.338,90.585L261.581,89.398L265.824,88.307L270.067,87.318L274.31,86.436L278.553,85.665L282.797,85.008L287.04,84.468L291.283,84.047L295.526,83.747L299.769,83.569L304.013,83.513L308.256,83.579L312.499,83.766L316.742,84.072L320.985,84.496L325.229,85.034L329.472,85.684L333.715,86.442L337.958,87.303L342.201,88.263L346.445,89.317L350.688,90.459L354.931,91.685L359.174,92.987L363.417,94.359L367.66,95.796L371.904,97.29L376.147,98.835L380.39,100.424L384.633,102.05L388.876,103.706L393.12,105.386L397.363,107.082L401.606,108.789L405.849,110.498L410.092,112.205L414.336,113.902L418.579,115.583L422.822,117.243L427.065,118.875L431.308,120.475L435.552,122.036L439.795,123.554L444.038,125.023" stroke="#4c78a8" stroke-width="2" opacity="0.5"/></g></g><path class="foreground" aria-hidden="true" d="" display="none"/></g><g transform="translate(0,0)"><path class="background" aria-hidden="true" d="M0,0h468v182h-468Z"/><g><g class="mark-line role-mark marks" role="graphics-object" aria-roledescription="line mark container"><path aria-label="t: −3.14159265359; value: −0.18961865507; Species: Adelie; sample: 3" role="graphics-symbol" aria-roledescription="line mark" d="M23.962,129.002L28.205,130.452L32.448,131.854L36.692,133.21L40.935,134.518L45.178,135.78L49.421,136.995L53.664,138.163L57.908,139.282L62.151,140.352L66.394,141.372L70.637,142.338L74.88,143.249L79.124,144.102L83.367,144.893L87.61,145.618L91.853,146.273L96.096,146.852L100.34,147.351L104.583,147.763L108.826,148.084L113.069,148.307L117.312,148.427L121.555,148.437L125.799,148.332L130.042,148.107L134.285,147.756L138.528,147.275L142.771,146.661L147.015,145.911L151.258,145.021L155.501,143.992L159.744,142.823L163.987,141.514L168.231,140.068L172.474,138.488L176.717,136.779L180.96,134.946L185.203,132.995L189.447,130.936L193.69,128.778L197.933,126.53L202.176,124.205L206.419,121.815L210.662,119.373L214.906,116.893L219.149,114.39L223.392,111.879L227.635,109.375L231.878,106.895L236.122,104.454L240.365,102.068L244.608,99.752L248.851,97.522L253.094,95.39L257.338,93.373L261.581,91.481L265.824,89.727L270.067,88.121L274.31,86.674L278.553,85.394L282.797,84.287L287.04,83.358L291.283,82.612L295.526,82.052L299.769,81.679L304.013,81.491L308.256,81.487L312.499,81.665L316.742,82.019L320.985,82.543L325.229,83.231L329.472,84.075L333.715,85.066L337.958,86.195L342.201,87.45L346.445,88.821L350.688,90.296L354.931,91.865L359.174,93.515L363.417,95.235L367.66,97.014L371.904,98.839L376.147,100.701L380.39,102.588L384.633,104.491L388.876,106.401L393.12,108.309L397.363,110.208L401.606,112.089L405.849,113.948L410.092,115.779L414.336,117.577L418.579,119.338L422.822,121.059L427.065,122.738L431.308,124.373L435.552,125.963L439.795,127.506L444.038,129.002" stroke="#4c78a8" stroke-width="2" opacity="0.5"/></g></g><path class="foreground" aria-hidden="true" d="" display="none"/></g><g transform="translate(0,0)"><path class="background" aria-hidden="true" d="M0,0h468v182h-468Z"/><g><g class="mark-line role-mark marks" role="graphics-object" aria-roledescription="line mark container"><path aria-label="t: −3.14159265359; value: −0.0330834639859; Species: Adelie; sample: 4" role="graphics-symbol" aria-roledescription="line mark" d="M23.962,122.671L28.205,124.156L32.448,125.607L36.692,127.03L40.935,128.429L45.178,129.807L49.421,131.168L53.664,132.514L57.908,133.847L62.151,135.168L66.394,136.477L70.637,137.772L74.88,139.049L79.124,140.306L83.367,141.537L87.61,142.736L91.853,143.894L96.096,145.004L100.34,146.055L104.583,147.037L108.826,147.939L113.069,148.748L117.312,149.453L121.555,150.04L125.799,150.498L130.042,150.814L134.285,150.977L138.528,150.975L142.771,150.798L147.015,150.437L151.258,149.884L155.501,149.133L159.744,148.179L163.987,147.018L168.231,145.65L172.474,144.076L176.717,142.297L180.96,140.321L185.203,138.152L189.447,135.802L193.69,133.28L197.933,130.601L202.176,127.779L206.419,124.832L210.662,121.778L214.906,118.636L219.149,115.428L223.392,112.176L227.635,108.903L231.878,105.632L236.122,102.387L240.365,99.191L244.608,96.068L248.851,93.04L253.094,90.13L257.338,87.358L261.581,84.743L265.824,82.305L270.067,80.059L274.31,78.02L278.553,76.201L282.797,74.612L287.04,73.261L291.283,72.155L295.526,71.296L299.769,70.686L304.013,70.325L308.256,70.208L312.499,70.331L316.742,70.686L320.985,71.265L325.229,72.055L329.472,73.045L333.715,74.22L337.958,75.566L342.201,77.066L346.445,78.705L350.688,80.465L354.931,82.329L359.174,84.28L363.417,86.301L367.66,88.375L371.904,90.488L376.147,92.623L380.39,94.768L384.633,96.909L388.876,99.035L393.12,101.136L397.363,103.204L401.606,105.231L405.849,107.211L410.092,109.141L414.336,111.017L418.579,112.838L422.822,114.604L427.065,116.316L431.308,117.975L435.552,119.585L439.795,121.149L444.038,122.671" stroke="#4c78a8" stroke-width="2" opacity="0.5"/></g></g><path class="foreground" aria-hidden="true" d="" display="none"/></g><g transform="translate(0,0)"><path class="background" aria-hidden="true" d="M0,0h468v182h-468Z"/><g><g class="mark-line role-mark marks" role="graphics-object" aria-roledescription="line mark container"><path aria-label="t: −3.14159265359; value: 0.124786861646; Species: Adelie; sample: 5" role="graphics-symbol" aria-roledescription="line mark" d="M23.962,116.286L28.205,116.936L32.448,117.583L36.692,118.235L40.935,118.899L45.178,119.581L49.421,120.286L53.664,121.021L57.908,121.787L62.151,122.589L66.394,123.427L70.637,124.301L74.88,125.211L79.124,126.154L83.367,127.125L87.61,128.12L91.853,129.132L96.096,130.153L100.34,131.174L104.583,132.185L108.826,133.174L113.069,134.131L117.312,135.042L121.555,135.895L125.799,136.677L130.042,137.374L134.285,137.975L138.528,138.467L142.771,138.838L147.015,139.078L151.258,139.176L155.501,139.124L159.744,138.915L163.987,138.544L168.231,138.005L172.474,137.298L176.717,136.421L180.96,135.376L185.203,134.167L189.447,132.798L193.69,131.278L197.933,129.614L202.176,127.819L206.419,125.904L210.662,123.884L214.906,121.773L219.149,119.588L223.392,117.347L227.635,115.068L231.878,112.77L236.122,110.472L240.365,108.192L244.608,105.951L248.851,103.766L253.094,101.656L257.338,99.637L261.581,97.727L265.824,95.939L270.067,94.288L274.31,92.785L278.553,91.44L282.797,90.262L287.04,89.257L291.283,88.429L295.526,87.782L299.769,87.316L304.013,87.029L308.256,86.918L312.499,86.979L316.742,87.204L320.985,87.585L325.229,88.112L329.472,88.775L333.715,89.561L337.958,90.458L342.201,91.451L346.445,92.528L350.688,93.674L354.931,94.875L359.174,96.117L363.417,97.387L367.66,98.67L371.904,99.957L376.147,101.234L380.39,102.493L384.633,103.724L388.876,104.919L393.12,106.073L397.363,107.18L401.606,108.237L405.849,109.243L410.092,110.197L414.336,111.099L418.579,111.952L422.822,112.759L427.065,113.525L431.308,114.254L435.552,114.953L439.795,115.628L444.038,116.286" stroke="#4c78a8" stroke-width="2" opacity="0.5"/></g></g><path class="foreground" aria-hidden="true" d="" display="none"/></g><g transform="translate(0,0)"><path class="background" aria-hidden="true" d="M0,0h468v182h-468Z"/><g><g class="mark-line role-mark marks" role="graphics-object" aria-roledescription="line mark container"><path aria-label="t: −3.14159265359; value: −0.133038959501; Species: Adelie; sample: 6" role="graphics-symbol" aria-roledescription="line mark" d="M23.962,126.714L28.205,125.89L32.448,125.05L36.692,124.232L40.935,123.471L45.178,122.803L49.421,122.257L53.664,121.865L57.908,121.649L62.151,121.631L66.394,121.827L70.637,122.249L74.88,122.903L79.124,123.791L83.367,124.907L87.61,126.244L91.853,127.786L96.096,129.514L100.34,131.403L104.583,133.426L108.826,135.549L113.069,137.737L117.312,139.952L121.555,142.154L125.799,144.3L130.042,146.348L134.285,148.255L138.528,149.979L142.771,151.479L147.015,152.718L151.258,153.659L155.501,154.271L159.744,154.524L163.987,154.397L168.231,153.87L172.474,152.929L176.717,151.568L180.96,149.785L185.203,147.584L189.447,144.976L193.69,141.978L197.933,138.611L202.176,134.903L206.419,130.888L210.662,126.603L214.906,122.091L219.149,117.398L223.392,112.572L227.635,107.665L231.878,102.731L236.122,97.822L240.365,92.994L244.608,88.299L248.851,83.791L253.094,79.519L257.338,75.531L261.581,71.87L265.824,68.576L270.067,65.684L274.31,63.224L278.553,61.221L282.797,59.691L287.04,58.648L291.283,58.098L295.526,58.039L299.769,58.466L304.013,59.364L308.256,60.716L312.499,62.496L316.742,64.676L320.985,67.219L325.229,70.089L329.472,73.242L333.715,76.633L337.958,80.216L342.201,83.942L346.445,87.761L350.688,91.623L354.931,95.481L359.174,99.287L363.417,102.996L367.66,106.566L371.904,109.959L376.147,113.14L380.39,116.079L384.633,118.751L388.876,121.136L393.12,123.219L397.363,124.992L401.606,126.452L405.849,127.6L410.092,128.443L414.336,128.996L418.579,129.276L422.822,129.305L427.065,129.109L431.308,128.718L435.552,128.165L439.795,127.485L444.038,126.714" stroke="#4c78a8" stroke-width="2" opacity="0.5"/></g></g><path class="foreground" aria-hidden="true" d="" display="none"/></g><g transform="translate(0,0)"><path class="background" aria-hidden="true" d="M0,0h468v182h-468Z"/><g><g class="mark-line role-mark marks" role="graphics-object" aria-roledescription="line mark container"><path aria-label="t: −3.14159265359; value: −0.288461538462; Species: Adelie; sample: 7" role="graphics-symbol" aria-roledescription="line mark" d="M23.962,133L28.205,134.016L32.448,134.988L36.692,135.917L40.935,136.807L45.178,137.659L49.421,138.475L53.664,139.257L57.908,140.006L62.151,140.723L66.394,141.408L70.637,142.06L74.88,142.679L79.124,143.263L83.367,143.809L87.61,144.313L91.853,144.773L96.096,145.184L100.34,145.542L104.583,145.839L108.826,146.072L113.069,146.235L117.312,146.32L121.555,146.321L125.799,146.234L130.042,146.05L134.285,145.766L138.528,145.376L142.771,144.874L147.015,144.257L151.258,143.522L155.501,142.666L159.744,141.688L163.987,140.588L168.231,139.367L172.474,138.026L176.717,136.569L180.96,135.001L185.203,133.327L189.447,131.555L193.69,129.692L197.933,127.748L202.176,125.734L206.419,123.66L210.662,121.541L214.906,119.387L219.149,117.215L223.392,115.037L227.635,112.869L231.878,110.725L236.122,108.62L240.365,106.57L244.608,104.59L248.851,102.692L253.094,100.891L257.338,99.2L261.581,97.63L265.824,96.193L270.067,94.899L274.31,93.756L278.553,92.771L282.797,91.95L287.04,91.298L291.283,90.817L295.526,90.51L299.769,90.375L304.013,90.412L308.256,90.617L312.499,90.986L316.742,91.513L320.985,92.192L325.229,93.014L329.472,93.97L333.715,95.051L337.958,96.246L342.201,97.543L346.445,98.932L350.688,100.399L354.931,101.933L359.174,103.522L363.417,105.155L367.66,106.818L371.904,108.502L376.147,110.195L380.39,111.888L384.633,113.571L388.876,115.236L393.12,116.874L397.363,118.481L401.606,120.048L405.849,121.573L410.092,123.05L414.336,124.478L418.579,125.854L422.822,127.176L427.065,128.445L431.308,129.661L435.552,130.824L439.795,131.937L444.038,133" stroke="#4c78a8" stroke-width="2" opacity="0.5"/></g></g><path class="foreground" aria-hidden="true" d="" display="none"/></g><g transform="translate(0,0)"><path class="background" aria-hidden="true" d="M0,0h468v182h-468Z"/><g><g class="mark-line role-mark marks" role="graphics-object" aria-roledescription="line mark container"><path aria-label="t: −3.14159265359; value: 0.069561068767; Species: Adelie; sample: 8" role="graphics-symbol" aria-roledescription="line mark" d="M23.962,118.52L28.205,118.717L32.448,118.9L36.692,119.093L40.935,119.317L45.178,119.595L49.421,119.946L53.664,120.386L57.908,120.932L62.151,121.594L66.394,122.382L70.637,123.302L74.88,124.356L79.124,125.541L83.367,126.853L87.61,128.284L91.853,129.82L96.096,131.446L100.34,133.144L104.583,134.891L108.826,136.664L113.069,138.435L117.312,140.178L121.555,141.861L125.799,143.456L130.042,144.931L134.285,146.257L138.528,147.402L142.771,148.339L147.015,149.041L151.258,149.483L155.501,149.643L159.744,149.502L163.987,149.046L168.231,148.261L172.474,147.141L176.717,145.682L180.96,143.884L185.203,141.753L189.447,139.3L193.69,136.536L197.933,133.483L202.176,130.161L206.419,126.597L210.662,122.821L214.906,118.865L219.149,114.767L223.392,110.562L227.635,106.292L231.878,101.997L236.122,97.719L240.365,93.499L244.608,89.379L248.851,85.399L253.094,81.597L257.338,78.012L261.581,74.676L265.824,71.621L270.067,68.875L274.31,66.462L278.553,64.401L282.797,62.708L287.04,61.395L291.283,60.467L295.526,59.927L299.769,59.772L304.013,59.994L308.256,60.582L312.499,61.519L316.742,62.785L320.985,64.358L325.229,66.211L329.472,68.315L333.715,70.637L337.958,73.146L342.201,75.805L346.445,78.581L350.688,81.437L354.931,84.339L359.174,87.252L363.417,90.144L367.66,92.984L371.904,95.743L376.147,98.395L380.39,100.917L384.633,103.29L388.876,105.498L393.12,107.527L397.363,109.371L401.606,111.023L405.849,112.483L410.092,113.754L414.336,114.842L418.579,115.757L422.822,116.513L427.065,117.124L431.308,117.61L435.552,117.99L439.795,118.285L444.038,118.52" stroke="#4c78a8" stroke-width="2" opacity="0.5"/></g></g><path class="foreground" aria-hidden="true" d="" display="none"/></g><g transform="translate(0,0)"><path class="background" aria-hidden="true" d="M0,0h468v182h-468Z"/><g><g class="mark-line role-mark marks" role="graphics-object" aria-roledescription="line mark container"><path aria-label="t: −3.14159265359; value: −0.0131851274811; Species: Adelie; sample: 9" role="graphics-symbol" aria-roledescription="line mark" d="M23.962,121.867L28.205,122.911L32.448,123.929L36.692,124.918L40.935,125.877L45.178,126.803L49.421,127.696L53.664,128.552L57.908,129.371L62.151,130.15L66.394,130.888L70.637,131.581L74.88,132.229L79.124,132.829L83.367,133.377L87.61,133.872L91.853,134.311L96.096,134.692L100.34,135.011L104.583,135.266L108.826,135.454L113.069,135.573L117.312,135.62L121.555,135.593L125.799,135.49L130.042,135.308L134.285,135.047L138.528,134.705L142.771,134.281L147.015,133.774L151.258,133.185L155.501,132.514L159.744,131.762L163.987,130.93L168.231,130.021L172.474,129.037L176.717,127.981L180.96,126.858L185.203,125.67L189.447,124.425L193.69,123.126L197.933,121.779L202.176,120.392L206.419,118.97L210.662,117.522L214.906,116.054L219.149,114.575L223.392,113.092L227.635,111.613L231.878,110.148L236.122,108.703L240.365,107.287L244.608,105.909L248.851,104.575L253.094,103.294L257.338,102.073L261.581,100.918L265.824,99.836L270.067,98.833L274.31,97.913L278.553,97.082L282.797,96.344L287.04,95.702L291.283,95.158L295.526,94.715L299.769,94.375L304.013,94.136L308.256,94.001L312.499,93.967L316.742,94.034L320.985,94.199L325.229,94.459L329.472,94.813L333.715,95.255L337.958,95.783L342.201,96.391L346.445,97.075L350.688,97.83L354.931,98.65L359.174,99.53L363.417,100.464L367.66,101.448L371.904,102.474L376.147,103.539L380.39,104.635L384.633,105.759L388.876,106.904L393.12,108.066L397.363,109.24L401.606,110.422L405.849,111.607L410.092,112.792L414.336,113.973L418.579,115.146L422.822,116.309L427.065,117.457L431.308,118.59L435.552,119.704L439.795,120.797L444.038,121.867" stroke="#4c78a8" stroke-width="2" opacity="0.5"/></g></g><path class="foreground" aria-hidden="true" d="" display="none"/></g><g transform="translate(0,0)"><path class="background" aria-hidden="true" d="M0,0h468v182h-468Z"/><g><g class="mark-line role-mark marks" role="graphics-object" aria-roledescription="line mark container"><path aria-label="t: −3.14159265359; value: 0.102199487904; Species: Adelie; sample: 10" role="graphics-symbol" aria-roledescription="line mark" d="M23.962,117.2L28.205,117.545L32.448,117.895L36.692,118.258L40.935,118.646L45.178,119.066L49.421,119.526L53.664,120.035L57.908,120.597L62.151,121.218L66.394,121.9L70.637,122.644L74.88,123.452L79.124,124.319L83.367,125.244L87.61,126.22L91.853,127.24L96.096,128.296L100.34,129.378L104.583,130.474L108.826,131.572L113.069,132.658L117.312,133.717L121.555,134.736L125.799,135.697L130.042,136.587L134.285,137.389L138.528,138.09L142.771,138.674L147.015,139.128L151.258,139.441L155.501,139.6L159.744,139.598L163.987,139.426L168.231,139.079L172.474,138.552L176.717,137.844L180.96,136.956L185.203,135.89L189.447,134.651L193.69,133.246L197.933,131.684L202.176,129.976L206.419,128.135L210.662,126.177L214.906,124.117L219.149,121.973L223.392,119.765L227.635,117.51L231.878,115.231L236.122,112.948L240.365,110.681L244.608,108.452L248.851,106.281L253.094,104.186L257.338,102.188L261.581,100.303L265.824,98.548L270.067,96.936L274.31,95.481L278.553,94.193L282.797,93.08L287.04,92.151L291.283,91.407L295.526,90.853L299.769,90.487L304.013,90.307L308.256,90.309L312.499,90.486L316.742,90.831L320.985,91.332L325.229,91.978L329.472,92.756L333.715,93.653L337.958,94.652L342.201,95.739L346.445,96.898L350.688,98.112L354.931,99.364L359.174,100.641L363.417,101.925L367.66,103.203L371.904,104.462L376.147,105.689L380.39,106.874L384.633,108.007L388.876,109.08L393.12,110.089L397.363,111.028L401.606,111.894L405.849,112.688L410.092,113.41L414.336,114.063L418.579,114.651L422.822,115.179L427.065,115.655L431.308,116.085L435.552,116.48L439.795,116.848L444.038,117.2" stroke="#4c78a8" stroke-width="2" opacity="0.5"/></g></g><path class="foreground" aria-hidden="true" d="" display="none"/></g><g transform="translate(0,0)"><path class="background" aria-hidden="true" d="M0,0h468v182h-468Z"/><g><g class="mark-line role-mark marks" role="graphics-object" aria-roledescription="line mark container"><path aria-label="t: −3.14159265359; value: 0.189192378362; Species: Adelie; sample: 11" role="graphics-symbol" aria-roledescription="line mark" d="M23.962,113.682L28.205,115.086L32.448,116.473L36.692,117.835L40.935,119.168L45.178,120.467L49.421,121.726L53.664,122.94L57.908,124.104L62.151,125.214L66.394,126.265L70.637,127.252L74.88,128.172L79.124,129.022L83.367,129.797L87.61,130.495L91.853,131.112L96.096,131.647L100.34,132.097L104.583,132.46L108.826,132.735L113.069,132.921L117.312,133.017L121.555,133.023L125.799,132.938L130.042,132.763L134.285,132.498L138.528,132.146L142.771,131.706L147.015,131.182L151.258,130.574L155.501,129.886L159.744,129.12L163.987,128.279L168.231,127.367L172.474,126.388L176.717,125.344L180.96,124.242L185.203,123.084L189.447,121.876L193.69,120.622L197.933,119.328L202.176,117.998L206.419,116.639L210.662,115.255L214.906,113.852L219.149,112.436L223.392,111.013L227.635,109.588L231.878,108.167L236.122,106.755L240.365,105.359L244.608,103.984L248.851,102.635L253.094,101.318L257.338,100.039L261.581,98.802L265.824,97.612L270.067,96.475L274.31,95.394L278.553,94.374L282.797,93.42L287.04,92.535L291.283,91.722L295.526,90.985L299.769,90.327L304.013,89.751L308.256,89.258L312.499,88.851L316.742,88.532L320.985,88.301L325.229,88.16L329.472,88.11L333.715,88.149L337.958,88.279L342.201,88.499L346.445,88.808L350.688,89.204L354.931,89.687L359.174,90.253L363.417,90.901L367.66,91.629L371.904,92.432L376.147,93.309L380.39,94.255L384.633,95.267L388.876,96.341L393.12,97.472L397.363,98.655L401.606,99.887L405.849,101.161L410.092,102.474L414.336,103.819L418.579,105.191L422.822,106.585L427.065,107.995L431.308,109.416L435.552,110.841L439.795,112.264L444.038,113.682" stroke="#4c78a8" stroke-width="2" opacity="0.5"/></g></g><path class="foreground" aria-hidden="true" d="" display="none"/></g><g transform="translate(0,0)"><path class="background" aria-hidden="true" d="M0,0h468v182h-468Z"/><g><g class="mark-line role-mark marks" role="graphics-object" aria-roledescription="line mark container"><path aria-label="t: −3.14159265359; value: −0.0789257787452; Species: Adelie; sample: 12" role="graphics-symbol" aria-roledescription="line mark" d="M23.962,124.525L28.205,125.911L32.448,127.264L36.692,128.593L40.935,129.907L45.178,131.211L49.421,132.514L53.664,133.819L57.908,135.133L62.151,136.457L66.394,137.792L70.637,139.139L74.88,140.495L79.124,141.857L83.367,143.218L87.61,144.571L91.853,145.907L96.096,147.215L100.34,148.484L104.583,149.698L108.826,150.844L113.069,151.906L117.312,152.868L121.555,153.713L125.799,154.424L130.042,154.984L134.285,155.377L138.528,155.588L142.771,155.602L147.015,155.406L151.258,154.988L155.501,154.338L159.744,153.449L163.987,152.315L168.231,150.933L172.474,149.301L176.717,147.423L180.96,145.302L185.203,142.947L189.447,140.367L193.69,137.575L197.933,134.586L202.176,131.419L206.419,128.094L210.662,124.632L214.906,121.058L219.149,117.398L223.392,113.678L227.635,109.927L231.878,106.172L236.122,102.444L240.365,98.771L244.608,95.183L248.851,91.706L253.094,88.368L257.338,85.194L261.581,82.209L265.824,79.435L270.067,76.892L274.31,74.597L278.553,72.566L282.797,70.811L287.04,69.341L291.283,68.163L295.526,67.281L299.769,66.695L304.013,66.402L308.256,66.399L312.499,66.678L316.742,67.227L320.985,68.034L325.229,69.085L329.472,70.363L333.715,71.849L337.958,73.524L342.201,75.367L346.445,77.357L350.688,79.472L354.931,81.69L359.174,83.989L363.417,86.348L367.66,88.746L371.904,91.164L376.147,93.583L380.39,95.988L384.633,98.362L388.876,100.693L393.12,102.969L397.363,105.181L401.606,107.321L405.849,109.384L410.092,111.367L414.336,113.268L418.579,115.089L422.822,116.83L427.065,118.496L431.308,120.092L435.552,121.624L439.795,123.099L444.038,124.525" stroke="#4c78a8" stroke-width="2" opacity="0.5"/></g></g><path class="foreground" aria-hidden="true" d="" display="none"/></g><g transform="translate(0,0)"><path class="background" aria-hidden="true" d="M0,0h468v182h-468Z"/><g><g class="mark-line role-mark marks" role="graphics-object" aria-roledescription="line mark container"><path aria-label="t: −3.14159265359; value: −0.365607137809; Species: Adelie; sample: 13" role="graphics-symbol" aria-roledescription="line mark" d="M23.962,136.12L28.205,136.303L32.448,136.451L36.692,136.591L40.935,136.748L45.178,136.947L49.421,137.211L53.664,137.561L57.908,138.014L62.151,138.584L66.394,139.283L70.637,140.117L74.88,141.09L79.124,142.201L83.367,143.445L87.61,144.814L91.853,146.293L96.096,147.867L100.34,149.515L104.583,151.213L108.826,152.936L113.069,154.653L117.312,156.334L121.555,157.947L125.799,159.457L130.042,160.833L134.285,162.039L138.528,163.043L142.771,163.814L147.015,164.322L151.258,164.54L155.501,164.445L159.744,164.016L163.987,163.236L168.231,162.092L172.474,160.578L176.717,158.69L180.96,156.429L185.203,153.803L189.447,150.824L193.69,147.508L197.933,143.877L202.176,139.958L206.419,135.78L210.662,131.379L214.906,126.793L219.149,122.062L223.392,117.23L227.635,112.342L231.878,107.446L236.122,102.588L240.365,97.817L244.608,93.179L248.851,88.721L253.094,84.485L257.338,80.515L261.581,76.848L265.824,73.519L270.067,70.559L274.31,67.996L278.553,65.85L282.797,64.14L287.04,62.876L291.283,62.066L295.526,61.71L299.769,61.804L304.013,62.338L308.256,63.298L312.499,64.664L316.742,66.413L320.985,68.517L325.229,70.944L329.472,73.659L333.715,76.625L337.958,79.803L342.201,83.152L346.445,86.631L350.688,90.198L354.931,93.811L359.174,97.431L363.417,101.019L367.66,104.538L371.904,107.955L376.147,111.238L380.39,114.362L384.633,117.301L388.876,120.037L393.12,122.555L397.363,124.845L401.606,126.899L405.849,128.718L410.092,130.302L414.336,131.659L418.579,132.8L422.822,133.74L427.065,134.495L431.308,135.087L435.552,135.539L439.795,135.874L444.038,136.12" stroke="#4c78a8" stroke-width="2" opacity="0.5"/></g></g><path class="foreground" aria-hidden="true" d="" display="none"/></g><g transform="translate(0,0)"><path class="background" aria-hidden="true" d="M0,0h468v182h-468Z"/><g><g class="mark-line role-mark marks" role="graphics-object" aria-roledescription="line mark container"><path aria-label="t: −3.14159265359; value: −0.0395741505849; Species: Adelie; sample: 14" role="graphics-symbol" aria-roledescription="line mark" d="M23.962,122.934L28.205,123.432L32.448,123.918L36.692,124.4L40.935,124.89L45.178,125.394L49.421,125.921L53.664,126.478L57.908,127.07L62.151,127.701L66.394,128.375L70.637,129.093L74.88,129.856L79.124,130.66L83.367,131.503L87.61,132.38L91.853,133.283L96.096,134.206L100.34,135.138L104.583,136.068L108.826,136.986L113.069,137.876L117.312,138.727L121.555,139.524L125.799,140.252L130.042,140.898L134.285,141.446L138.528,141.883L142.771,142.196L147.015,142.373L151.258,142.402L155.501,142.274L159.744,141.981L163.987,141.516L168.231,140.874L172.474,140.053L176.717,139.053L180.96,137.874L185.203,136.522L189.447,135.001L193.69,133.321L197.933,131.49L202.176,129.523L206.419,127.431L210.662,125.232L214.906,122.943L219.149,120.582L223.392,118.169L227.635,115.724L231.878,113.27L236.122,110.826L240.365,108.415L244.608,106.058L248.851,103.776L253.094,101.588L257.338,99.514L261.581,97.572L265.824,95.778L270.067,94.146L274.31,92.689L278.553,91.418L282.797,90.342L287.04,89.466L291.283,88.795L295.526,88.331L299.769,88.073L304.013,88.019L308.256,88.162L312.499,88.498L316.742,89.015L320.985,89.704L325.229,90.552L329.472,91.546L333.715,92.67L337.958,93.908L342.201,95.245L346.445,96.662L350.688,98.143L354.931,99.67L359.174,101.226L363.417,102.796L367.66,104.364L371.904,105.915L376.147,107.436L380.39,108.915L384.633,110.342L388.876,111.707L393.12,113.004L397.363,114.227L401.606,115.372L405.849,116.438L410.092,117.425L414.336,118.333L418.579,119.167L422.822,119.93L427.065,120.629L431.308,121.271L435.552,121.863L439.795,122.414L444.038,122.934" stroke="#4c78a8" stroke-width="2" opacity="0.5"/></g></g><path class="foreground" aria-hidden="true" d="" display="none"/></g><g transform="translate(0,0)"><path class="background" aria-hidden="true" d="M0,0h468v182h-468Z"/><g><g class="mark-line role-mark marks" role="graphics-object" aria-roledescription="line mark container"><path aria-label="t: −3.14159265359; value: 0.20217375156; Species: Chinstrap; sample: 15" role="graphics-symbol" aria-roledescription="line mark" d="M23.962,113.157L28.205,114.062L32.448,114.927L36.692,115.755L40.935,116.549L45.178,117.312L49.421,118.048L53.664,118.758L57.908,119.445L62.151,120.109L66.394,120.752L70.637,121.373L74.88,121.972L79.124,122.546L83.367,123.094L87.61,123.612L91.853,124.097L96.096,124.542L100.34,124.945L104.583,125.297L108.826,125.594L113.069,125.828L117.312,125.993L121.555,126.081L125.799,126.085L130.042,125.998L134.285,125.815L138.528,125.527L142.771,125.131L147.015,124.62L151.258,123.991L155.501,123.24L159.744,122.366L163.987,121.366L168.231,120.242L172.474,118.994L176.717,117.626L180.96,116.142L185.203,114.546L189.447,112.846L193.69,111.05L197.933,109.167L202.176,107.207L206.419,105.182L210.662,103.105L214.906,100.989L219.149,98.849L223.392,96.698L227.635,94.553L231.878,92.429L236.122,90.34L240.365,88.303L244.608,86.333L248.851,84.444L253.094,82.65L257.338,80.966L261.581,79.402L265.824,77.972L270.067,76.684L274.31,75.548L278.553,74.571L282.797,73.759L287.04,73.117L291.283,72.647L295.526,72.352L299.769,72.23L304.013,72.28L308.256,72.499L312.499,72.881L316.742,73.422L320.985,74.112L325.229,74.944L329.472,75.909L333.715,76.995L337.958,78.191L342.201,79.487L346.445,80.869L350.688,82.324L354.931,83.842L359.174,85.408L363.417,87.01L367.66,88.637L371.904,90.278L376.147,91.921L380.39,93.555L384.633,95.173L388.876,96.765L393.12,98.325L397.363,99.845L401.606,101.32L405.849,102.747L410.092,104.121L414.336,105.441L418.579,106.705L422.822,107.913L427.065,109.066L431.308,110.165L435.552,111.211L439.795,112.207L444.038,113.157" stroke="#f58518" stroke-width="2" opacity="0.5"/></g></g><path class="foreground" aria-hidden="true" d="" display="none"/></g><g transform="translate(0,0)"><path class="background" aria-hidden="true" d="M0,0h468v182h-468Z"/><g><g class="mark-line role-mark marks" role="graphics-object" aria-roledescription="line mark container"><path aria-label="t: −3.14159265359; value: 0.25830840228; Species: Chinstrap; sample: 16" role="graphics-symbol" aria-roledescription="line mark" d="M23.962,110.886L28.205,111.526L32.448,112.122L36.692,112.69L40.935,113.242L45.178,113.791L49.421,114.348L53.664,114.924L57.908,115.527L62.151,116.165L66.394,116.842L70.637,117.562L74.88,118.326L79.124,119.132L83.367,119.977L87.61,120.855L91.853,121.759L96.096,122.678L100.34,123.6L104.583,124.512L108.826,125.399L113.069,126.244L117.312,127.029L121.555,127.738L125.799,128.351L130.042,128.849L134.285,129.215L138.528,129.429L142.771,129.477L147.015,129.342L151.258,129.01L155.501,128.468L159.744,127.708L163.987,126.721L168.231,125.503L172.474,124.05L176.717,122.363L180.96,120.447L185.203,118.307L189.447,115.952L193.69,113.395L197.933,110.652L202.176,107.739L206.419,104.678L210.662,101.491L214.906,98.202L219.149,94.839L223.392,91.428L227.635,87.999L231.878,84.581L236.122,81.205L240.365,77.9L244.608,74.696L248.851,71.622L253.094,68.704L257.338,65.97L261.581,63.443L265.824,61.146L270.067,59.097L274.31,57.314L278.553,55.811L282.797,54.598L287.04,53.684L291.283,53.073L295.526,52.765L299.769,52.76L304.013,53.051L308.256,53.63L312.499,54.486L316.742,55.605L320.985,56.969L325.229,58.561L329.472,60.358L333.715,62.339L337.958,64.479L342.201,66.754L346.445,69.138L350.688,71.605L354.931,74.13L359.174,76.688L363.417,79.253L367.66,81.804L371.904,84.318L376.147,86.776L380.39,89.159L384.633,91.451L388.876,93.638L393.12,95.711L397.363,97.659L401.606,99.477L405.849,101.162L410.092,102.713L414.336,104.13L418.579,105.418L422.822,106.583L427.065,107.633L431.308,108.576L435.552,109.425L439.795,110.19L444.038,110.886" stroke="#f58518" stroke-width="2" opacity="0.5"/></g></g><path class="foreground" aria-hidden="true" d="" display="none"/></g><g transform="translate(0,0)"><path class="background" aria-hidden="true" d="M0,0h468v182h-468Z"/><g><g class="mark-line role-mark marks" role="graphics-object" aria-roledescription="line mark container"><path aria-label="t: −3.14159265359; value: 0.365422151668; Species: Chinstrap; sample: 17" role="graphics-symbol" aria-roledescription="line mark" d="M23.962,106.554L28.205,107.585L32.448,108.575L36.692,109.531L40.935,110.459L45.178,111.365L49.421,112.253L53.664,113.128L57.908,113.994L62.151,114.854L66.394,115.709L70.637,116.559L74.88,117.403L79.124,118.24L83.367,119.065L87.61,119.873L91.853,120.66L96.096,121.417L100.34,122.136L104.583,122.808L108.826,123.422L113.069,123.969L117.312,124.437L121.555,124.814L125.799,125.089L130.042,125.25L134.285,125.286L138.528,125.187L142.771,124.942L147.015,124.543L151.258,123.982L155.501,123.253L159.744,122.35L163.987,121.271L168.231,120.014L172.474,118.58L176.717,116.97L180.96,115.189L185.203,113.244L189.447,111.142L193.69,108.894L197.933,106.513L202.176,104.012L206.419,101.406L210.662,98.714L214.906,95.952L219.149,93.142L223.392,90.303L227.635,87.457L231.878,84.625L236.122,81.829L240.365,79.09L244.608,76.432L248.851,73.873L253.094,71.434L257.338,69.135L261.581,66.993L265.824,65.024L270.067,63.242L274.31,61.661L278.553,60.292L282.797,59.142L287.04,58.218L291.283,57.525L295.526,57.064L299.769,56.836L304.013,56.837L308.256,57.063L312.499,57.507L316.742,58.161L320.985,59.014L325.229,60.054L329.472,61.268L333.715,62.64L337.958,64.155L342.201,65.796L346.445,67.547L350.688,69.39L354.931,71.307L359.174,73.281L363.417,75.295L367.66,77.332L371.904,79.378L376.147,81.417L380.39,83.436L384.633,85.423L388.876,87.367L393.12,89.259L397.363,91.09L401.606,92.856L405.849,94.55L410.092,96.17L414.336,97.715L418.579,99.184L422.822,100.579L427.065,101.901L431.308,103.155L435.552,104.345L439.795,105.476L444.038,106.554" stroke="#f58518" stroke-width="2" opacity="0.5"/></g></g><path class="foreground" aria-hidden="true" d="" display="none"/></g><g transform="translate(0,0)"><path class="background" aria-hidden="true" d="M0,0h468v182h-468Z"/><g><g class="mark-line role-mark marks" role="graphics-object" aria-roledescription="line mark container"><path aria-label="t: −3.14159265359; value: 0.23727868551; Species: Chinstrap; sample: 18" role="graphics-symbol" aria-roledescription="line mark" d="M23.962,111.737L28.205,112.857L32.448,113.948L36.692,115.015L40.935,116.059L45.178,117.084L49.421,118.091L53.664,119.083L57.908,120.06L62.151,121.023L66.394,121.972L70.637,122.905L74.88,123.821L79.124,124.717L83.367,125.589L87.61,126.433L91.853,127.242L96.096,128.012L100.34,128.734L104.583,129.402L108.826,130.007L113.069,130.542L117.312,130.996L121.555,131.362L125.799,131.632L130.042,131.795L134.285,131.844L138.528,131.772L142.771,131.571L147.015,131.234L151.258,130.758L155.501,130.136L159.744,129.366L163.987,128.446L168.231,127.376L172.474,126.156L176.717,124.789L180.96,123.279L185.203,121.632L189.447,119.854L193.69,117.954L197.933,115.941L202.176,113.827L206.419,111.625L210.662,109.349L214.906,107.012L219.149,104.63L223.392,102.22L227.635,99.798L231.878,97.382L236.122,94.988L240.365,92.635L244.608,90.338L248.851,88.115L253.094,85.981L257.338,83.952L261.581,82.042L265.824,80.264L270.067,78.631L274.31,77.152L278.553,75.837L282.797,74.693L287.04,73.727L291.283,72.942L295.526,72.341L299.769,71.926L304.013,71.694L308.256,71.644L312.499,71.772L316.742,72.073L320.985,72.538L325.229,73.161L329.472,73.932L333.715,74.841L337.958,75.876L342.201,77.026L346.445,78.28L350.688,79.623L354.931,81.044L359.174,82.529L363.417,84.068L367.66,85.646L371.904,87.253L376.147,88.877L380.39,90.508L384.633,92.137L388.876,93.755L393.12,95.355L397.363,96.929L401.606,98.473L405.849,99.981L410.092,101.451L414.336,102.881L418.579,104.268L422.822,105.613L427.065,106.916L431.308,108.177L435.552,109.4L439.795,110.585L444.038,111.737" stroke="#f58518" stroke-width="2" opacity="0.5"/></g></g><path class="foreground" aria-hidden="true" d="" display="none"/></g><g transform="translate(0,0)"><path class="background" aria-hidden="true" d="M0,0h468v182h-468Z"/><g><g class="mark-line role-mark marks" role="graphics-object" aria-roledescription="line mark container"><path aria-label="t: −3.14159265359; value: 0.341722165802; Species: Chinstrap; sample: 19" role="graphics-symbol" aria-roledescription="line mark" d="M23.962,107.513L28.205,108.585L32.448,109.605L36.692,110.582L40.935,111.523L45.178,112.436L49.421,113.326L53.664,114.2L57.908,115.063L62.151,115.918L66.394,116.767L70.637,117.612L74.88,118.452L79.124,119.285L83.367,120.108L87.61,120.915L91.853,121.699L96.096,122.454L100.34,123.17L104.583,123.836L108.826,124.441L113.069,124.973L117.312,125.42L121.555,125.769L125.799,126.005L130.042,126.117L134.285,126.091L138.528,125.916L142.771,125.58L147.015,125.073L151.258,124.386L155.501,123.512L159.744,122.445L163.987,121.181L168.231,119.72L172.474,118.06L176.717,116.205L180.96,114.16L185.203,111.933L189.447,109.531L193.69,106.969L197.933,104.258L202.176,101.416L206.419,98.46L210.662,95.411L214.906,92.288L219.149,89.115L223.392,85.915L227.635,82.712L231.878,79.531L236.122,76.398L240.365,73.336L244.608,70.37L248.851,67.525L253.094,64.823L257.338,62.286L261.581,59.933L265.824,57.783L270.067,55.853L274.31,54.157L278.553,52.706L282.797,51.51L287.04,50.577L291.283,49.91L295.526,49.51L299.769,49.379L304.013,49.51L308.256,49.9L312.499,50.539L316.742,51.417L320.985,52.521L325.229,53.836L329.472,55.347L333.715,57.036L337.958,58.884L342.201,60.871L346.445,62.977L350.688,65.182L354.931,67.464L359.174,69.804L363.417,72.182L367.66,74.578L371.904,76.974L376.147,79.353L380.39,81.699L384.633,83.998L388.876,86.238L393.12,88.408L397.363,90.498L401.606,92.503L405.849,94.416L410.092,96.234L414.336,97.956L418.579,99.582L422.822,101.114L427.065,102.555L431.308,103.909L435.552,105.182L439.795,106.381L444.038,107.513" stroke="#f58518" stroke-width="2" opacity="0.5"/></g></g><path class="foreground" aria-hidden="true" d="" display="none"/></g><g transform="translate(0,0)"><path class="background" aria-hidden="true" d="M0,0h468v182h-468Z"/><g><g class="mark-line role-mark marks" role="graphics-object" aria-roledescription="line mark container"><path aria-label="t: −3.14159265359; value: 0.0373676944798; Species: Chinstrap; sample: 20" role="graphics-symbol" aria-roledescription="line mark" d="M23.962,119.822L28.205,119.817L32.448,119.766L36.692,119.688L40.935,119.599L45.178,119.515L49.421,119.452L53.664,119.423L57.908,119.44L62.151,119.513L66.394,119.651L70.637,119.858L74.88,120.139L79.124,120.494L83.367,120.921L87.61,121.416L91.853,121.973L96.096,122.582L100.34,123.232L104.583,123.91L108.826,124.601L113.069,125.289L117.312,125.955L121.555,126.581L125.799,127.148L130.042,127.635L134.285,128.025L138.528,128.296L142.771,128.432L147.015,128.416L151.258,128.231L155.501,127.864L159.744,127.304L163.987,126.542L168.231,125.57L172.474,124.384L176.717,122.985L180.96,121.374L185.203,119.556L189.447,117.538L193.69,115.334L197.933,112.955L202.176,110.421L206.419,107.748L210.662,104.961L214.906,102.081L219.149,99.136L223.392,96.152L227.635,93.158L231.878,90.183L236.122,87.255L240.365,84.404L244.608,81.66L248.851,79.05L253.094,76.601L257.338,74.337L261.581,72.283L265.824,70.46L270.067,68.885L274.31,67.574L278.553,66.539L282.797,65.791L287.04,65.335L291.283,65.174L295.526,65.307L299.769,65.73L304.013,66.436L308.256,67.413L312.499,68.649L316.742,70.126L320.985,71.827L325.229,73.729L329.472,75.809L333.715,78.043L337.958,80.404L342.201,82.865L346.445,85.4L350.688,87.98L354.931,90.579L359.174,93.169L363.417,95.726L367.66,98.225L371.904,100.644L376.147,102.963L380.39,105.163L384.633,107.229L388.876,109.148L393.12,110.91L397.363,112.507L401.606,113.935L405.849,115.192L410.092,116.279L414.336,117.201L418.579,117.964L422.822,118.576L427.065,119.048L431.308,119.394L435.552,119.628L439.795,119.765L444.038,119.822" stroke="#f58518" stroke-width="2" opacity="0.5"/></g></g><path class="foreground" aria-hidden="true" d="" display="none"/></g><g transform="translate(0,0)"><path class="background" aria-hidden="true" d="M0,0h468v182h-468Z"/><g><g class="mark-line role-mark marks" role="graphics-object" aria-roledescription="line mark container"><path aria-label="t: −3.14159265359; value: 0.456197923346; Species: Chinstrap; sample: 21" role="graphics-symbol" aria-roledescription="line mark" d="M23.962,102.883L28.205,104.389L32.448,105.891L36.692,107.383L40.935,108.86L45.178,110.318L49.421,111.751L53.664,113.155L57.908,114.524L62.151,115.855L66.394,117.141L70.637,118.379L74.88,119.564L79.124,120.691L83.367,121.755L87.61,122.752L91.853,123.678L96.096,124.529L100.34,125.299L104.583,125.987L108.826,126.588L113.069,127.098L117.312,127.515L121.555,127.837L125.799,128.059L130.042,128.181L134.285,128.202L138.528,128.118L142.771,127.931L147.015,127.638L151.258,127.242L155.501,126.742L159.744,126.139L163.987,125.435L168.231,124.632L172.474,123.733L176.717,122.742L180.96,121.661L185.203,120.496L189.447,119.25L193.69,117.93L197.933,116.54L202.176,115.087L206.419,113.578L210.662,112.019L214.906,110.417L219.149,108.78L223.392,107.115L227.635,105.43L231.878,103.733L236.122,102.032L240.365,100.335L244.608,98.651L248.851,96.986L253.094,95.349L257.338,93.747L261.581,92.187L265.824,90.678L270.067,89.225L274.31,87.836L278.553,86.515L282.797,85.27L287.04,84.104L291.283,83.024L295.526,82.032L299.769,81.133L304.013,80.331L308.256,79.627L312.499,79.024L316.742,78.523L320.985,78.127L325.229,77.835L329.472,77.647L333.715,77.564L337.958,77.584L342.201,77.706L346.445,77.929L350.688,78.25L354.931,78.667L359.174,79.178L363.417,79.778L367.66,80.466L371.904,81.237L376.147,82.087L380.39,83.013L384.633,84.01L388.876,85.075L393.12,86.201L397.363,87.386L401.606,88.624L405.849,89.911L410.092,91.241L414.336,92.611L418.579,94.014L422.822,95.448L427.065,96.905L431.308,98.382L435.552,99.874L439.795,101.376L444.038,102.883" stroke="#f58518" stroke-width="2" opacity="0.5"/></g></g><path class="foreground" aria-hidden="true" d="" display="none"/></g><g transform="translate(0,0)"><path class="background" aria-hidden="true" d="M0,0h468v182h-468Z"/><g><g class="mark-line role-mark marks" role="graphics-object" aria-roledescription="line mark container"><path aria-label="t: −3.14159265359; value: 0.288499074745; Species: Chinstrap; sample: 22" role="graphics-symbol" aria-roledescription="line mark" d="M23.962,109.665L28.205,110.176L32.448,110.638L36.692,111.062L40.935,111.459L45.178,111.838L49.421,112.209L53.664,112.58L57.908,112.958L62.151,113.35L66.394,113.759L70.637,114.189L74.88,114.642L79.124,115.115L83.367,115.609L87.61,116.118L91.853,116.637L96.096,117.159L100.34,117.676L104.583,118.178L108.826,118.653L113.069,119.09L117.312,119.476L121.555,119.798L125.799,120.042L130.042,120.194L134.285,120.241L138.528,120.17L142.771,119.968L147.015,119.625L151.258,119.13L155.501,118.476L159.744,117.654L163.987,116.659L168.231,115.49L172.474,114.144L176.717,112.622L180.96,110.93L185.203,109.071L189.447,107.054L193.69,104.891L197.933,102.592L202.176,100.173L206.419,97.65L210.662,95.042L214.906,92.368L219.149,89.649L223.392,86.908L227.635,84.168L231.878,81.451L236.122,78.783L240.365,76.185L244.608,73.682L248.851,71.296L253.094,69.048L257.338,66.96L261.581,65.048L265.824,63.332L270.067,61.825L274.31,60.54L278.553,59.488L282.797,58.677L287.04,58.113L291.283,57.798L295.526,57.732L299.769,57.914L304.013,58.338L308.256,58.997L312.499,59.881L316.742,60.978L320.985,62.274L325.229,63.753L329.472,65.399L333.715,67.192L337.958,69.112L342.201,71.139L346.445,73.253L350.688,75.431L354.931,77.653L359.174,79.897L363.417,82.145L367.66,84.377L371.904,86.574L376.147,88.721L380.39,90.801L384.633,92.802L388.876,94.713L393.12,96.524L397.363,98.226L401.606,99.816L405.849,101.289L410.092,102.644L414.336,103.881L418.579,105.004L422.822,106.017L427.065,106.924L431.308,107.734L435.552,108.454L439.795,109.095L444.038,109.665" stroke="#f58518" stroke-width="2" opacity="0.5"/></g></g><path class="foreground" aria-hidden="true" d="" display="none"/></g><g transform="translate(0,0)"><path class="background" aria-hidden="true" d="M0,0h468v182h-468Z"/><g><g class="mark-line role-mark marks" role="graphics-object" aria-roledescription="line mark container"><path aria-label="t: −3.14159265359; value: 0.125473197062; Species: Chinstrap; sample: 23" role="graphics-symbol" aria-roledescription="line mark" d="M23.962,116.259L28.205,116.224L32.448,116.159L36.692,116.085L40.935,116.023L45.178,115.994L49.421,116.016L53.664,116.107L57.908,116.281L62.151,116.55L66.394,116.924L70.637,117.41L74.88,118.009L79.124,118.723L83.367,119.548L87.61,120.478L91.853,121.503L96.096,122.61L100.34,123.784L104.583,125.007L108.826,126.258L113.069,127.514L117.312,128.752L121.555,129.947L125.799,131.071L130.042,132.1L134.285,133.005L138.528,133.763L142.771,134.347L147.015,134.736L151.258,134.906L155.501,134.841L159.744,134.522L163.987,133.938L168.231,133.077L172.474,131.935L176.717,130.507L180.96,128.796L185.203,126.806L189.447,124.547L193.69,122.031L197.933,119.275L202.176,116.299L206.419,113.128L210.662,109.787L214.906,106.307L219.149,102.719L223.392,99.058L227.635,95.357L231.878,91.655L236.122,87.987L240.365,84.391L244.608,80.903L248.851,77.559L253.094,74.392L257.338,71.436L261.581,68.719L265.824,66.269L270.067,64.109L274.31,62.261L278.553,60.74L282.797,59.559L287.04,58.727L291.283,58.248L295.526,58.123L299.769,58.347L304.013,58.913L308.256,59.808L312.499,61.016L316.742,62.517L320.985,64.291L325.229,66.31L329.472,68.547L333.715,70.972L337.958,73.554L342.201,76.26L346.445,79.057L350.688,81.912L354.931,84.793L359.174,87.667L363.417,90.504L367.66,93.274L371.904,95.952L376.147,98.512L380.39,100.934L384.633,103.199L388.876,105.293L393.12,107.203L397.363,108.921L401.606,110.443L405.849,111.769L410.092,112.9L414.336,113.843L418.579,114.607L422.822,115.203L427.065,115.647L431.308,115.955L435.552,116.146L439.795,116.24L444.038,116.259" stroke="#f58518" stroke-width="2" opacity="0.5"/></g></g><path class="foreground" aria-hidden="true" d="" display="none"/></g><g transform="translate(0,0)"><path class="background" aria-hidden="true" d="M0,0h468v182h-468Z"/><g><g class="mark-line role-mark marks" role="graphics-object" aria-roledescription="line mark container"><path aria-label="t: −3.14159265359; value: 0.269268305514; Species: Chinstrap; sample: 24" role="graphics-symbol" aria-roledescription="line mark" d="M23.962,110.443L28.205,111.594L32.448,112.689L36.692,113.736L40.935,114.741L45.178,115.711L49.421,116.652L53.664,117.568L57.908,118.465L62.151,119.345L66.394,120.21L70.637,121.061L74.88,121.898L79.124,122.717L83.367,123.517L87.61,124.291L91.853,125.033L96.096,125.737L100.34,126.393L104.583,126.992L108.826,127.524L113.069,127.975L117.312,128.336L121.555,128.594L125.799,128.736L130.042,128.751L134.285,128.626L138.528,128.351L142.771,127.915L147.015,127.31L151.258,126.526L155.501,125.558L159.744,124.401L163.987,123.052L168.231,121.51L172.474,119.776L176.717,117.853L180.96,115.746L185.203,113.463L189.447,111.014L193.69,108.411L197.933,105.667L202.176,102.798L206.419,99.823L210.662,96.76L214.906,93.63L219.149,90.456L223.392,87.26L227.635,84.066L231.878,80.898L236.122,77.781L240.365,74.738L244.608,71.794L248.851,68.972L253.094,66.293L257.338,63.78L261.581,61.451L265.824,59.324L270.067,57.415L274.31,55.739L278.553,54.306L282.797,53.125L287.04,52.205L291.283,51.548L295.526,51.157L299.769,51.031L304.013,51.167L308.256,51.558L312.499,52.197L316.742,53.073L320.985,54.175L325.229,55.488L329.472,56.996L333.715,58.683L337.958,60.53L342.201,62.519L346.445,64.629L350.688,66.841L354.931,69.134L359.174,71.489L363.417,73.885L367.66,76.305L371.904,78.73L376.147,81.144L380.39,83.53L384.633,85.875L388.876,88.167L393.12,90.393L397.363,92.546L401.606,94.618L405.849,96.602L410.092,98.496L414.336,100.298L418.579,102.006L422.822,103.621L427.065,105.148L431.308,106.588L435.552,107.946L439.795,109.229L444.038,110.443" stroke="#f58518" stroke-width="2" opacity="0.5"/></g></g><path class="foreground" aria-hidden="true" d="" display="none"/></g><g transform="translate(0,0)"><path class="background" aria-hidden="true" d="M0,0h468v182h-468Z"/><g><g class="mark-line role-mark marks" role="graphics-object" aria-roledescription="line mark container"><path aria-label="t: −3.14159265359; value: 0.186744631691; Species: Chinstrap; sample: 25" role="graphics-symbol" aria-roledescription="line mark" d="M23.962,113.781L28.205,114.073L32.448,114.331L36.692,114.567L40.935,114.795L45.178,115.025L49.421,115.269L53.664,115.536L57.908,115.834L62.151,116.172L66.394,116.553L70.637,116.981L74.88,117.459L79.124,117.985L83.367,118.557L87.61,119.171L91.853,119.821L96.096,120.498L100.34,121.194L104.583,121.896L108.826,122.592L113.069,123.268L117.312,123.91L121.555,124.502L125.799,125.028L130.042,125.472L134.285,125.819L138.528,126.052L142.771,126.158L147.015,126.124L151.258,125.935L155.501,125.583L159.744,125.057L163.987,124.351L168.231,123.46L172.474,122.38L176.717,121.113L180.96,119.66L185.203,118.026L189.447,116.218L193.69,114.246L197.933,112.122L202.176,109.86L206.419,107.477L210.662,104.991L214.906,102.422L219.149,99.793L223.392,97.126L227.635,94.444L231.878,91.772L236.122,89.134L240.365,86.556L244.608,84.062L248.851,81.675L253.094,79.417L257.338,77.311L261.581,75.375L265.824,73.629L270.067,72.087L274.31,70.763L278.553,69.669L282.797,68.812L287.04,68.2L291.283,67.834L295.526,67.716L299.769,67.843L304.013,68.21L308.256,68.809L312.499,69.63L316.742,70.661L320.985,71.886L325.229,73.29L329.472,74.855L333.715,76.56L337.958,78.386L342.201,80.31L346.445,82.312L350.688,84.369L354.931,86.46L359.174,88.564L363.417,90.659L367.66,92.727L371.904,94.749L376.147,96.709L380.39,98.591L384.633,100.384L388.876,102.075L393.12,103.656L397.363,105.121L401.606,106.465L405.849,107.685L410.092,108.783L414.336,109.76L418.579,110.621L422.822,111.371L427.065,112.018L431.308,112.572L435.552,113.043L439.795,113.441L444.038,113.781" stroke="#f58518" stroke-width="2" opacity="0.5"/></g></g><path class="foreground" aria-hidden="true" d="" display="none"/></g><g transform="translate(0,0)"><path class="background" aria-hidden="true" d="M0,0h468v182h-468Z"/><g><g class="mark-line role-mark marks" role="graphics-object" aria-roledescription="line mark container"><path aria-label="t: −3.14159265359; value: 0.361397979882; Species: Chinstrap; sample: 26" role="graphics-symbol" aria-roledescription="line mark" d="M23.962,106.717L28.205,107.857L32.448,108.957L36.692,110.023L40.935,111.066L45.178,112.093L49.421,113.11L53.664,114.125L57.908,115.142L62.151,116.165L66.394,117.196L70.637,118.235L74.88,119.283L79.124,120.336L83.367,121.389L87.61,122.437L91.853,123.471L96.096,124.482L100.34,125.46L104.583,126.393L108.826,127.267L113.069,128.068L117.312,128.781L121.555,129.392L125.799,129.884L130.042,130.243L134.285,130.454L138.528,130.503L142.771,130.376L147.015,130.061L151.258,129.547L155.501,128.826L159.744,127.891L163.987,126.736L168.231,125.358L172.474,123.758L176.717,121.937L180.96,119.899L185.203,117.653L189.447,115.207L193.69,112.574L197.933,109.769L202.176,106.808L206.419,103.71L210.662,100.496L214.906,97.189L219.149,93.813L223.392,90.394L227.635,86.957L231.878,83.53L236.122,80.139L240.365,76.811L244.608,73.575L248.851,70.454L253.094,67.475L257.338,64.661L261.581,62.034L265.824,59.615L270.067,57.422L274.31,55.47L278.553,53.774L282.797,52.343L287.04,51.187L291.283,50.309L295.526,49.714L299.769,49.4L304.013,49.365L308.256,49.602L312.499,50.103L316.742,50.857L320.985,51.852L325.229,53.072L329.472,54.5L333.715,56.118L337.958,57.907L342.201,59.845L346.445,61.912L350.688,64.086L354.931,66.345L359.174,68.668L363.417,71.034L367.66,73.423L371.904,75.817L376.147,78.196L380.39,80.545L384.633,82.85L388.876,85.096L393.12,87.275L397.363,89.375L401.606,91.391L405.849,93.318L410.092,95.152L414.336,96.893L418.579,98.541L422.822,100.098L427.065,101.57L431.308,102.96L435.552,104.277L439.795,105.526L444.038,106.717" stroke="#f58518" stroke-width="2" opacity="0.5"/></g></g><path class="foreground" aria-hidden="true" d="" display="none"/></g><g transform="translate(0,0)"><path class="background" aria-hidden="true" d="M0,0h468v182h-468Z"/><g><g class="mark-line role-mark marks" role="graphics-object" aria-roledescription="line mark container"><path aria-label="t: −3.14159265359; value: 0.355797382982; Species: Chinstrap; sample: 27" role="graphics-symbol" aria-roledescription="line mark" d="M23.962,106.943L28.205,107.281L32.448,107.607L36.692,107.932L40.935,108.264L45.178,108.615L49.421,108.991L53.664,109.401L57.908,109.85L62.151,110.344L66.394,110.886L70.637,111.478L74.88,112.121L79.124,112.812L83.367,113.55L87.61,114.33L91.853,115.145L96.096,115.987L100.34,116.848L104.583,117.717L108.826,118.581L113.069,119.429L117.312,120.247L121.555,121.021L125.799,121.737L130.042,122.38L134.285,122.936L138.528,123.391L142.771,123.732L147.015,123.946L151.258,124.023L155.501,123.952L159.744,123.726L163.987,123.336L168.231,122.779L172.474,122.051L176.717,121.152L180.96,120.082L185.203,118.846L189.447,117.448L193.69,115.897L197.933,114.201L202.176,112.374L206.419,110.427L210.662,108.377L214.906,106.24L219.149,104.035L223.392,101.779L227.635,99.494L231.878,97.199L236.122,94.916L240.365,92.665L244.608,90.467L248.851,88.342L253.094,86.31L257.338,84.388L261.581,82.595L265.824,80.946L270.067,79.454L274.31,78.132L278.553,76.99L282.797,76.037L287.04,75.277L291.283,74.715L295.526,74.352L299.769,74.187L304.013,74.217L308.256,74.437L312.499,74.838L316.742,75.413L320.985,76.15L325.229,77.036L329.472,78.057L333.715,79.199L337.958,80.445L342.201,81.779L346.445,83.183L350.688,84.641L354.931,86.136L359.174,87.65L363.417,89.167L367.66,90.673L371.904,92.153L376.147,93.594L380.39,94.984L384.633,96.313L388.876,97.574L393.12,98.758L397.363,99.861L401.606,100.88L405.849,101.814L410.092,102.663L414.336,103.429L418.579,104.116L422.822,104.728L427.065,105.273L431.308,105.758L435.552,106.192L439.795,106.584L444.038,106.943" stroke="#f58518" stroke-width="2" opacity="0.5"/></g></g><path class="foreground" aria-hidden="true" d="" display="none"/></g><g transform="translate(0,0)"><path class="background" aria-hidden="true" d="M0,0h468v182h-468Z"/><g><g class="mark-line role-mark marks" role="graphics-object" aria-roledescription="line mark container"><path aria-label="t: −3.14159265359; value: 0.23818754335; Species: Chinstrap; sample: 28" role="graphics-symbol" aria-roledescription="line mark" d="M23.962,111.7L28.205,111.593L32.448,111.434L36.692,111.243L40.935,111.041L45.178,110.845L49.421,110.673L53.664,110.542L57.908,110.464L62.151,110.453L66.394,110.516L70.637,110.662L74.88,110.895L79.124,111.214L83.367,111.62L87.61,112.107L91.853,112.669L96.096,113.294L100.34,113.972L104.583,114.686L108.826,115.421L113.069,116.158L117.312,116.876L121.555,117.555L125.799,118.173L130.042,118.708L134.285,119.137L138.528,119.44L142.771,119.596L147.015,119.584L151.258,119.389L155.501,118.994L159.744,118.386L163.987,117.555L168.231,116.492L172.474,115.194L176.717,113.659L180.96,111.889L185.203,109.889L189.447,107.67L193.69,105.242L197.933,102.623L202.176,99.829L206.419,96.885L210.662,93.812L214.906,90.64L219.149,87.395L223.392,84.109L227.635,80.813L231.878,77.54L236.122,74.322L240.365,71.193L244.608,68.185L248.851,65.329L253.094,62.654L257.338,60.19L261.581,57.961L265.824,55.992L270.067,54.303L274.31,52.911L278.553,51.829L282.797,51.069L287.04,50.636L291.283,50.534L295.526,50.761L299.769,51.312L304.013,52.179L308.256,53.348L312.499,54.805L316.742,56.531L320.985,58.504L325.229,60.699L329.472,63.09L333.715,65.649L337.958,68.347L342.201,71.151L346.445,74.032L350.688,76.959L354.931,79.899L359.174,82.824L363.417,85.704L367.66,88.513L371.904,91.225L376.147,93.816L380.39,96.268L384.633,98.562L388.876,100.683L393.12,102.621L397.363,104.367L401.606,105.917L405.849,107.268L410.092,108.422L414.336,109.385L418.579,110.164L422.822,110.769L427.065,111.212L431.308,111.51L435.552,111.678L439.795,111.735L444.038,111.7" stroke="#f58518" stroke-width="2" opacity="0.5"/></g></g><path class="foreground" aria-hidden="true" d="" display="none"/></g><g transform="translate(0,0)"><path class="background" aria-hidden="true" d="M0,0h468v182h-468Z"/><g><g class="mark-line role-mark marks" role="graphics-object" aria-roledescription="line mark container"><path aria-label="t: −3.14159265359; value: 0.217825393854; Species: Chinstrap; sample: 29" role="graphics-symbol" aria-roledescription="line mark" d="M23.962,112.524L28.205,113.031L32.448,113.507L36.692,113.959L40.935,114.394L45.178,114.816L49.421,115.233L53.664,115.65L57.908,116.069L62.151,116.495L66.394,116.931L70.637,117.377L74.88,117.834L79.124,118.301L83.367,118.776L87.61,119.256L91.853,119.737L96.096,120.212L100.34,120.677L104.583,121.123L108.826,121.543L113.069,121.929L117.312,122.271L121.555,122.559L125.799,122.785L130.042,122.938L134.285,123.009L138.528,122.99L142.771,122.872L147.015,122.647L151.258,122.308L155.501,121.849L159.744,121.266L163.987,120.555L168.231,119.715L172.474,118.744L176.717,117.644L180.96,116.418L185.203,115.069L189.447,113.604L193.69,112.029L197.933,110.355L202.176,108.591L206.419,106.749L210.662,104.842L214.906,102.884L219.149,100.89L223.392,98.875L227.635,96.856L231.878,94.85L236.122,92.873L240.365,90.942L244.608,89.073L248.851,87.283L253.094,85.586L257.338,83.997L261.581,82.531L265.824,81.198L270.067,80.01L274.31,78.976L278.553,78.104L282.797,77.4L287.04,76.869L291.283,76.512L295.526,76.332L299.769,76.326L304.013,76.492L308.256,76.825L312.499,77.32L316.742,77.967L320.985,78.759L325.229,79.685L329.472,80.733L333.715,81.892L337.958,83.146L342.201,84.484L346.445,85.89L350.688,87.351L354.931,88.852L359.174,90.379L363.417,91.919L367.66,93.458L371.904,94.984L376.147,96.485L380.39,97.952L384.633,99.374L388.876,100.744L393.12,102.056L397.363,103.303L401.606,104.481L405.849,105.588L410.092,106.623L414.336,107.585L418.579,108.477L422.822,109.299L427.065,110.055L431.308,110.751L435.552,111.39L439.795,111.979L444.038,112.524" stroke="#f58518" stroke-width="2" opacity="0.5"/></g></g><path class="foreground" aria-hidden="true" d="" display="none"/></g><g transform="translate(0,0)"><path class="background" aria-hidden="true" d="M0,0h468v182h-468Z"/><g><g class="mark-line role-mark marks" role="graphics-object" aria-roledescription="line mark container"><path aria-label="t: −3.14159265359; value: −0.178417461269; Species: Gentoo; sample: 30" role="graphics-symbol" aria-roledescription="line mark" d="M23.962,128.549L28.205,125.986L32.448,123.36L36.692,120.711L40.935,118.08L45.178,115.504L49.421,113.019L53.664,110.659L57.908,108.452L62.151,106.427L66.394,104.605L70.637,103.005L74.88,101.64L79.124,100.519L83.367,99.647L87.61,99.021L91.853,98.638L96.096,98.486L100.34,98.55L104.583,98.814L108.826,99.253L113.069,99.842L117.312,100.554L121.555,101.356L125.799,102.218L130.042,103.105L134.285,103.983L138.528,104.82L142.771,105.581L147.015,106.235L151.258,106.753L155.501,107.107L159.744,107.273L163.987,107.232L168.231,106.966L172.474,106.462L176.717,105.713L180.96,104.716L185.203,103.473L189.447,101.989L193.69,100.276L197.933,98.35L202.176,96.231L206.419,93.944L210.662,91.517L214.906,88.982L219.149,86.374L223.392,83.729L227.635,81.087L231.878,78.487L236.122,75.971L240.365,73.577L244.608,71.347L248.851,69.319L253.094,67.529L257.338,66.011L261.581,64.794L265.824,63.907L270.067,63.372L274.31,63.208L278.553,63.426L282.797,64.036L287.04,65.04L291.283,66.436L295.526,68.215L299.769,70.365L304.013,72.867L308.256,75.697L312.499,78.826L316.742,82.223L320.985,85.851L325.229,89.671L329.472,93.64L333.715,97.714L337.958,101.846L342.201,105.99L346.445,110.099L350.688,114.126L354.931,118.025L359.174,121.754L363.417,125.272L367.66,128.54L371.904,131.523L376.147,134.192L380.39,136.52L384.633,138.487L388.876,140.076L393.12,141.277L397.363,142.084L401.606,142.497L405.849,142.523L410.092,142.171L414.336,141.457L418.579,140.402L422.822,139.032L427.065,137.373L431.308,135.46L435.552,133.326L439.795,131.009L444.038,128.549" stroke="#e45756" stroke-width="2" opacity="0.5"/></g></g><path class="foreground" aria-hidden="true" d="" display="none"/></g><g transform="translate(0,0)"><path class="background" aria-hidden="true" d="M0,0h468v182h-468Z"/><g><g class="mark-line role-mark marks" role="graphics-object" aria-roledescription="line mark container"><path aria-label="t: −3.14159265359; value: −0.395537751566; Species: Gentoo; sample: 31" role="graphics-symbol" aria-roledescription="line mark" d="M23.962,137.331L28.205,133.413L32.448,129.407L36.692,125.385L40.935,121.419L45.178,117.579L49.421,113.928L53.664,110.526L57.908,107.427L62.151,104.676L66.394,102.313L70.637,100.367L74.88,98.86L79.124,97.806L83.367,97.206L87.61,97.056L91.853,97.34L96.096,98.034L100.34,99.108L104.583,100.52L108.826,102.224L113.069,104.168L117.312,106.294L121.555,108.539L125.799,110.838L130.042,113.125L134.285,115.332L138.528,117.393L142.771,119.24L147.015,120.814L151.258,122.054L155.501,122.909L159.744,123.331L163.987,123.28L168.231,122.724L172.474,121.64L176.717,120.012L180.96,117.835L185.203,115.114L189.447,111.862L193.69,108.103L197.933,103.868L202.176,99.199L206.419,94.147L210.662,88.767L214.906,83.124L219.149,77.287L223.392,71.332L227.635,65.336L231.878,59.379L236.122,53.545L240.365,47.914L244.608,42.568L248.851,37.584L253.094,33.036L257.338,28.995L261.581,25.523L265.824,22.676L270.067,20.503L274.31,19.043L278.553,18.327L282.797,18.375L287.04,19.196L291.283,20.79L295.526,23.146L299.769,26.242L304.013,30.048L308.256,34.522L312.499,39.612L316.742,45.262L320.985,51.404L325.229,57.965L329.472,64.868L333.715,72.029L337.958,79.364L342.201,86.783L346.445,94.199L350.688,101.525L354.931,108.675L359.174,115.566L363.417,122.121L367.66,128.267L371.904,133.939L376.147,139.079L380.39,143.637L384.633,147.571L388.876,150.851L393.12,153.454L397.363,155.37L401.606,156.597L405.849,157.144L410.092,157.03L414.336,156.283L418.579,154.939L422.822,153.044L427.065,150.649L431.308,147.815L435.552,144.604L439.795,141.085L444.038,137.331" stroke="#e45756" stroke-width="2" opacity="0.5"/></g></g><path class="foreground" aria-hidden="true" d="" display="none"/></g><g transform="translate(0,0)"><path class="background" aria-hidden="true" d="M0,0h468v182h-468Z"/><g><g class="mark-line role-mark marks" role="graphics-object" aria-roledescription="line mark container"><path aria-label="t: −3.14159265359; value: −0.0603438086468; Species: Gentoo; sample: 32" role="graphics-symbol" aria-roledescription="line mark" d="M23.962,123.774L28.205,121.597L32.448,119.358L36.692,117.095L40.935,114.843L45.178,112.64L49.421,110.517L53.664,108.506L57.908,106.636L62.151,104.929L66.394,103.408L70.637,102.088L74.88,100.982L79.124,100.097L83.367,99.437L87.61,99L91.853,98.78L96.096,98.767L100.34,98.945L104.583,99.298L108.826,99.802L113.069,100.433L117.312,101.163L121.555,101.963L125.799,102.801L130.042,103.645L134.285,104.463L138.528,105.221L142.771,105.89L147.015,106.438L151.258,106.837L155.501,107.062L159.744,107.091L163.987,106.903L168.231,106.483L172.474,105.821L176.717,104.908L180.96,103.744L185.203,102.33L189.447,100.673L193.69,98.786L197.933,96.684L202.176,94.388L206.419,91.923L210.662,89.316L214.906,86.6L219.149,83.81L223.392,80.981L227.635,78.152L231.878,75.363L236.122,72.654L240.365,70.066L244.608,67.637L248.851,65.406L253.094,63.408L257.338,61.678L261.581,60.246L265.824,59.138L270.067,58.378L274.31,57.983L278.553,57.969L282.797,58.342L287.04,59.108L291.283,60.264L295.526,61.804L299.769,63.714L304.013,65.978L308.256,68.575L312.499,71.476L316.742,74.652L320.985,78.068L325.229,81.685L329.472,85.464L333.715,89.363L337.958,93.335L342.201,97.338L346.445,101.325L350.688,105.251L354.931,109.073L359.174,112.748L363.417,116.237L367.66,119.503L371.904,122.512L376.147,125.234L380.39,127.644L384.633,129.72L388.876,131.448L393.12,132.814L397.363,133.814L401.606,134.447L405.849,134.717L410.092,134.633L414.336,134.209L418.579,133.465L422.822,132.423L427.065,131.109L431.308,129.553L435.552,127.789L439.795,125.85L444.038,123.774" stroke="#e45756" stroke-width="2" opacity="0.5"/></g></g><path class="foreground" aria-hidden="true" d="" display="none"/></g><g transform="translate(0,0)"><path class="background" aria-hidden="true" d="M0,0h468v182h-468Z"/><g><g class="mark-line role-mark marks" role="graphics-object" aria-roledescription="line mark container"><path aria-label="t: −3.14159265359; value: −0.164768520797; Species: Gentoo; sample: 33" role="graphics-symbol" aria-roledescription="line mark" d="M23.962,127.997L28.205,123.746L32.448,119.444L36.692,115.168L40.935,110.989L45.178,106.976L49.421,103.197L53.664,99.709L57.908,96.567L62.151,93.818L66.394,91.5L70.637,89.643L74.88,88.268L79.124,87.388L83.367,87.005L87.61,87.112L91.853,87.694L96.096,88.725L100.34,90.172L104.583,91.994L108.826,94.143L113.069,96.563L117.312,99.196L121.555,101.977L125.799,104.839L130.042,107.713L134.285,110.529L138.528,113.216L142.771,115.709L147.015,117.941L151.258,119.852L155.501,121.386L159.744,122.493L163.987,123.13L168.231,123.264L172.474,122.867L176.717,121.921L180.96,120.419L185.203,118.362L189.447,115.761L193.69,112.637L197.933,109.019L202.176,104.947L206.419,100.467L210.662,95.635L214.906,90.512L219.149,85.166L223.392,79.669L227.635,74.098L231.878,68.531L236.122,63.05L240.365,57.734L244.608,52.663L248.851,47.913L253.094,43.558L257.338,39.667L261.581,36.303L265.824,33.52L270.067,31.368L274.31,29.885L278.553,29.101L282.797,29.038L287.04,29.706L291.283,31.105L295.526,33.223L299.769,36.042L304.013,39.531L308.256,43.649L312.499,48.348L316.742,53.57L320.985,59.251L325.229,65.32L329.472,71.701L333.715,78.313L337.958,85.072L342.201,91.894L346.445,98.692L350.688,105.381L354.931,111.879L359.174,118.105L363.417,123.985L367.66,129.449L371.904,134.433L376.147,138.884L380.39,142.753L384.633,146.002L388.876,148.603L393.12,150.537L397.363,151.795L401.606,152.379L405.849,152.299L410.092,151.578L414.336,150.246L418.579,148.341L422.822,145.911L427.065,143.012L431.308,139.702L435.552,136.05L439.795,132.124L444.038,127.997" stroke="#e45756" stroke-width="2" opacity="0.5"/></g></g><path class="foreground" aria-hidden="true" d="" display="none"/></g><g transform="translate(0,0)"><path class="background" aria-hidden="true" d="M0,0h468v182h-468Z"/><g><g class="mark-line role-mark marks" role="graphics-object" aria-roledescription="line mark container"><path aria-label="t: −3.14159265359; value: −0.198315797774; Species: Gentoo; sample: 34" role="graphics-symbol" aria-roledescription="line mark" d="M23.962,129.354L28.205,125.462L32.448,121.522L36.692,117.599L40.935,113.758L45.178,110.06L49.421,106.565L53.664,103.325L57.908,100.388L62.151,97.797L66.394,95.585L70.637,93.78L74.88,92.401L79.124,91.459L83.367,90.958L87.61,90.893L91.853,91.249L96.096,92.006L100.34,93.134L104.583,94.598L108.826,96.357L113.069,98.362L117.312,100.562L121.555,102.9L125.799,105.319L130.042,107.756L134.285,110.152L138.528,112.446L142.771,114.577L147.015,116.49L151.258,118.13L155.501,119.45L159.744,120.405L163.987,120.957L168.231,121.077L172.474,120.741L176.717,119.933L180.96,118.646L185.203,116.881L189.447,114.648L193.69,111.965L197.933,108.858L202.176,105.36L206.419,101.513L210.662,97.364L214.906,92.969L219.149,88.385L223.392,83.675L227.635,78.908L231.878,74.151L236.122,69.475L240.365,64.95L244.608,60.645L248.851,56.627L253.094,52.96L257.338,49.704L261.581,46.913L265.824,44.635L270.067,42.913L274.31,41.78L278.553,41.263L282.797,41.377L287.04,42.133L291.283,43.529L295.526,45.556L299.769,48.194L304.013,51.418L308.256,55.189L312.499,59.466L316.742,64.198L320.985,69.326L325.229,74.788L329.472,80.516L333.715,86.439L337.958,92.483L342.201,98.573L346.445,104.632L350.688,110.585L354.931,116.36L359.174,121.885L363.417,127.095L367.66,131.928L371.904,136.329L376.147,140.248L380.39,143.645L384.633,146.486L388.876,148.745L393.12,150.407L397.363,151.463L401.606,151.916L405.849,151.775L410.092,151.059L414.336,149.796L418.579,148.02L422.822,145.774L427.065,143.106L431.308,140.069L435.552,136.723L439.795,133.13L444.038,129.354" stroke="#e45756" stroke-width="2" opacity="0.5"/></g></g><path class="foreground" aria-hidden="true" d="" display="none"/></g><g transform="translate(0,0)"><path class="background" aria-hidden="true" d="M0,0h468v182h-468Z"/><g><g class="mark-line role-mark marks" role="graphics-object" aria-roledescription="line mark container"><path aria-label="t: −3.14159265359; value: −0.143980094594; Species: Gentoo; sample: 35" role="graphics-symbol" aria-roledescription="line mark" d="M23.962,127.157L28.205,124.594L32.448,121.974L36.692,119.336L40.935,116.722L45.178,114.171L49.421,111.719L53.664,109.401L57.908,107.247L62.151,105.284L66.394,103.535L70.637,102.018L74.88,100.747L79.124,99.73L83.367,98.972L87.61,98.469L91.853,98.218L96.096,98.205L100.34,98.415L104.583,98.829L108.826,99.422L113.069,100.168L117.312,101.036L121.555,101.994L125.799,103.008L130.042,104.043L134.285,105.063L138.528,106.032L142.771,106.915L147.015,107.681L151.258,108.297L155.501,108.735L159.744,108.97L163.987,108.98L168.231,108.748L172.474,108.26L176.717,107.509L180.96,106.491L185.203,105.207L189.447,103.664L193.69,101.874L197.933,99.854L202.176,97.624L206.419,95.21L210.662,92.642L214.906,89.953L219.149,87.18L223.392,84.36L227.635,81.535L231.878,78.746L236.122,76.036L240.365,73.448L244.608,71.023L248.851,68.801L253.094,66.82L257.338,65.117L261.581,63.723L265.824,62.667L270.067,61.973L274.31,61.66L278.553,61.743L282.797,62.231L287.04,63.127L291.283,64.429L295.526,66.129L299.769,68.214L304.013,70.666L308.256,73.461L312.499,76.569L316.742,79.958L320.985,83.59L325.229,87.425L329.472,91.42L333.715,95.528L337.958,99.703L342.201,103.895L346.445,108.058L350.688,112.143L354.931,116.103L359.174,119.893L363.417,123.471L367.66,126.799L371.904,129.839L376.147,132.562L380.39,134.94L384.633,136.951L388.876,138.58L393.12,139.814L397.363,140.649L401.606,141.085L405.849,141.127L410.092,140.787L414.336,140.08L418.579,139.028L422.822,137.657L427.065,135.995L431.308,134.077L435.552,131.939L439.795,129.619L444.038,127.157" stroke="#e45756" stroke-width="2" opacity="0.5"/></g></g><path class="foreground" aria-hidden="true" d="" display="none"/></g><g transform="translate(0,0)"><path class="background" aria-hidden="true" d="M0,0h468v182h-468Z"/><g><g class="mark-line role-mark marks" role="graphics-object" aria-roledescription="line mark container"><path aria-label="t: −3.14159265359; value: −0.205029006798; Species: Gentoo; sample: 36" role="graphics-symbol" aria-roledescription="line mark" d="M23.962,129.626L28.205,126.932L32.448,124.182L36.692,121.426L40.935,118.708L45.178,116.074L49.421,113.566L53.664,111.223L57.908,109.079L62.151,107.165L66.394,105.506L70.637,104.122L74.88,103.027L79.124,102.231L83.367,101.735L87.61,101.536L91.853,101.626L96.096,101.989L100.34,102.605L104.583,103.449L108.826,104.491L113.069,105.699L117.312,107.034L121.555,108.458L125.799,109.929L130.042,111.403L134.285,112.839L138.528,114.192L142.771,115.42L147.015,116.485L151.258,117.348L155.501,117.974L159.744,118.335L163.987,118.403L168.231,118.158L172.474,117.584L176.717,116.671L180.96,115.415L185.203,113.819L189.447,111.89L193.69,109.643L197.933,107.098L202.176,104.28L206.419,101.221L210.662,97.957L214.906,94.528L219.149,90.978L223.392,87.353L227.635,83.703L231.878,80.079L236.122,76.532L240.365,73.114L244.608,69.877L248.851,66.868L253.094,64.136L257.338,61.723L261.581,59.67L265.824,58.011L270.067,56.777L274.31,55.993L278.553,55.677L282.797,55.842L287.04,56.494L291.283,57.631L295.526,59.246L299.769,61.326L304.013,63.848L308.256,66.788L312.499,70.111L316.742,73.781L320.985,77.754L325.229,81.984L329.472,86.421L333.715,91.011L337.958,95.7L342.201,100.432L346.445,105.149L350.688,109.798L354.931,114.321L359.174,118.669L363.417,122.789L367.66,126.638L371.904,130.173L376.147,133.356L380.39,136.158L384.633,138.551L388.876,140.517L393.12,142.042L397.363,143.12L401.606,143.749L405.849,143.937L410.092,143.696L414.336,143.045L418.579,142.008L422.822,140.614L427.065,138.898L431.308,136.898L435.552,134.656L439.795,132.216L444.038,129.626" stroke="#e45756" stroke-width="2" opacity="0.5"/></g></g><path class="foreground" aria-hidden="true" d="" display="none"/></g><g transform="translate(0,0)"><path class="background" aria-hidden="true" d="M0,0h468v182h-468Z"/><g><g class="mark-line role-mark marks" role="graphics-object" aria-roledescription="line mark container"><path aria-label="t: −3.14159265359; value: −0.309453718948; Species: Gentoo; sample: 37" role="graphics-symbol" aria-roledescription="line mark" d="M23.962,133.849L28.205,130.594L32.448,127.27L36.692,123.937L40.935,120.653L45.178,117.472L49.421,114.447L53.664,111.625L57.908,109.051L62.151,106.761L66.394,104.786L70.637,103.152L74.88,101.876L79.124,100.968L83.367,100.431L87.61,100.26L91.853,100.445L96.096,100.965L100.34,101.796L104.583,102.906L108.826,104.257L113.069,105.809L117.312,107.513L121.555,109.321L125.799,111.181L130.042,113.038L134.285,114.839L138.528,116.53L142.771,118.059L147.015,119.375L151.258,120.432L155.501,121.187L159.744,121.602L163.987,121.645L168.231,121.289L172.474,120.517L176.717,119.314L180.96,117.678L185.203,115.609L189.447,113.12L193.69,110.228L197.933,106.959L202.176,103.345L206.419,99.426L210.662,95.246L214.906,90.857L219.149,86.313L223.392,81.674L227.635,77.002L231.878,72.36L236.122,67.814L240.365,63.43L244.608,59.27L248.851,55.397L253.094,51.869L257.338,48.743L261.581,46.067L265.824,43.887L270.067,42.241L274.31,41.16L278.553,40.667L282.797,40.78L287.04,41.504L291.283,42.84L295.526,44.779L299.769,47.303L304.013,50.387L308.256,53.997L312.499,58.093L316.742,62.629L320.985,67.55L325.229,72.799L329.472,78.314L333.715,84.027L337.958,89.87L342.201,95.774L346.445,101.668L350.688,107.482L354.931,113.148L359.174,118.6L363.417,123.776L367.66,128.619L371.904,133.076L376.147,137.101L380.39,140.655L384.633,143.705L388.876,146.226L393.12,148.202L397.363,149.625L401.606,150.492L405.849,150.813L410.092,150.602L414.336,149.882L418.579,148.683L422.822,147.042L427.065,145.001L431.308,142.608L435.552,139.915L439.795,136.976L444.038,133.849" stroke="#e45756" stroke-width="2" opacity="0.5"/></g></g><path class="foreground" aria-hidden="true" d="" display="none"/></g><g transform="translate(0,0)"><path class="background" aria-hidden="true" d="M0,0h468v182h-468Z"/><g><g class="mark-line role-mark marks" role="graphics-object" aria-roledescription="line mark container"><path aria-label="t: −3.14159265359; value: −0.246402104922; Species: Gentoo; sample: 38" role="graphics-symbol" aria-roledescription="line mark" d="M23.962,131.299L28.205,128.996L32.448,126.633L36.692,124.248L40.935,121.876L45.178,119.552L49.421,117.309L53.664,115.178L57.908,113.187L62.151,111.359L66.394,109.715L70.637,108.272L74.88,107.042L79.124,106.033L83.367,105.25L87.61,104.69L91.853,104.349L96.096,104.218L100.34,104.283L104.583,104.526L108.826,104.927L113.069,105.463L117.312,106.107L121.555,106.83L125.799,107.604L130.042,108.397L134.285,109.179L138.528,109.917L142.771,110.582L147.015,111.145L151.258,111.579L155.501,111.858L159.744,111.961L163.987,111.869L168.231,111.566L172.474,111.043L176.717,110.291L180.96,109.307L185.203,108.094L189.447,106.658L193.69,105.01L197.933,103.164L202.176,101.139L206.419,98.958L210.662,96.649L214.906,94.24L219.149,91.763L223.392,89.254L227.635,86.748L231.878,84.283L236.122,81.895L240.365,79.624L244.608,77.505L248.851,75.575L253.094,73.867L257.338,72.413L261.581,71.24L265.824,70.375L270.067,69.838L274.31,69.646L278.553,69.812L282.797,70.343L287.04,71.242L291.283,72.506L295.526,74.129L299.769,76.098L304.013,78.396L308.256,81.001L312.499,83.887L316.742,87.025L320.985,90.381L325.229,93.917L329.472,97.596L333.715,101.375L337.958,105.213L342.201,109.066L346.445,112.89L350.688,116.643L354.931,120.282L359.174,123.767L363.417,127.06L367.66,130.125L371.904,132.932L376.147,135.45L380.39,137.657L384.633,139.533L388.876,141.062L393.12,142.234L397.363,143.044L401.606,143.493L405.849,143.584L410.092,143.328L414.336,142.739L418.579,141.834L422.822,140.638L427.065,139.177L431.308,137.479L435.552,135.577L439.795,133.505L444.038,131.299" stroke="#e45756" stroke-width="2" opacity="0.5"/></g></g><path class="foreground" aria-hidden="true" d="" display="none"/></g><g transform="translate(0,0)"><path class="background" aria-hidden="true" d="M0,0h468v182h-468Z"/><g><g class="mark-line role-mark marks" role="graphics-object" aria-roledescription="line mark container"><path aria-label="t: −3.14159265359; value: −0.228728992664; Species: Gentoo; sample: 39" role="graphics-symbol" aria-roledescription="line mark" d="M23.962,130.584L28.205,127.464L32.448,124.286L36.692,121.108L40.935,117.985L45.178,114.972L49.421,112.119L53.664,109.472L57.908,107.073L62.151,104.957L66.394,103.156L70.637,101.692L74.88,100.582L79.124,99.835L83.367,99.455L87.61,99.435L91.853,99.764L96.096,100.423L100.34,101.386L104.583,102.623L108.826,104.095L113.069,105.762L117.312,107.578L121.555,109.493L125.799,111.456L130.042,113.415L134.285,115.315L138.528,117.105L142.771,118.731L147.015,120.145L151.258,121.302L155.501,122.157L159.744,122.675L163.987,122.823L168.231,122.576L172.474,121.914L176.717,120.825L180.96,119.303L185.203,117.353L189.447,114.983L193.69,112.211L197.933,109.062L202.176,105.567L206.419,101.764L210.662,97.698L214.906,93.418L219.149,88.977L223.392,84.434L227.635,79.848L231.878,75.284L236.122,70.803L240.365,66.469L244.608,62.346L248.851,58.494L253.094,54.971L257.338,51.83L261.581,49.121L265.824,46.889L270.067,45.169L274.31,43.995L278.553,43.388L282.797,43.366L287.04,43.935L291.283,45.097L295.526,46.843L299.769,49.156L304.013,52.012L308.256,55.379L312.499,59.219L316.742,63.487L320.985,68.13L325.229,73.094L329.472,78.317L333.715,83.736L337.958,89.285L342.201,94.895L346.445,100.499L350.688,106.029L354.931,111.42L359.174,116.607L363.417,121.531L367.66,126.136L371.904,130.372L376.147,134.194L380.39,137.563L384.633,140.45L388.876,142.829L393.12,144.686L397.363,146.011L401.606,146.805L405.849,147.074L410.092,146.835L414.336,146.109L418.579,144.926L422.822,143.322L427.065,141.338L431.308,139.02L435.552,136.419L439.795,133.588L444.038,130.584" stroke="#e45756" stroke-width="2" opacity="0.5"/></g></g><path class="foreground" aria-hidden="true" d="" display="none"/></g><g transform="translate(0,0)"><path class="background" aria-hidden="true" d="M0,0h468v182h-468Z"/><g><g class="mark-line role-mark marks" role="graphics-object" aria-roledescription="line mark container"><path aria-label="t: −3.14159265359; value: −0.433795535745; Species: Gentoo; sample: 40" role="graphics-symbol" aria-roledescription="line mark" d="M23.962,138.878L28.205,136.18L32.448,133.415L36.692,130.625L40.935,127.856L45.178,125.148L49.421,122.54L53.664,120.07L57.908,117.77L62.151,115.67L66.394,113.792L70.637,112.158L74.88,110.782L79.124,109.673L83.367,108.834L87.61,108.266L91.853,107.96L96.096,107.905L100.34,108.084L104.583,108.477L108.826,109.056L113.069,109.795L117.312,110.661L121.555,111.618L125.799,112.632L130.042,113.663L134.285,114.675L138.528,115.63L142.771,116.49L147.015,117.221L151.258,117.789L155.501,118.164L159.744,118.319L163.987,118.232L168.231,117.884L172.474,117.262L176.717,116.357L180.96,115.165L185.203,113.69L189.447,111.937L193.69,109.921L197.933,107.659L202.176,105.175L206.419,102.497L210.662,99.656L214.906,96.689L219.149,93.634L223.392,90.534L227.635,87.433L231.878,84.376L236.122,81.408L240.365,78.576L244.608,75.925L248.851,73.498L253.094,71.336L257.338,69.477L261.581,67.957L265.824,66.806L270.067,66.049L274.31,65.709L278.553,65.8L282.797,66.331L287.04,67.308L291.283,68.727L295.526,70.58L299.769,72.852L304.013,75.524L308.256,78.569L312.499,81.957L316.742,85.651L320.985,89.613L325.229,93.797L329.472,98.156L333.715,102.643L337.958,107.204L342.201,111.789L346.445,116.345L350.688,120.82L354.931,125.163L359.174,129.327L363.417,133.265L367.66,136.935L371.904,140.298L376.147,143.321L380.39,145.973L384.633,148.232L388.876,150.08L393.12,151.503L397.363,152.496L401.606,153.059L405.849,153.197L410.092,152.921L414.336,152.25L418.579,151.204L422.822,149.812L427.065,148.105L431.308,146.118L435.552,143.891L439.795,141.463L444.038,138.878" stroke="#e45756" stroke-width="2" opacity="0.5"/></g></g><path class="foreground" aria-hidden="true" d="" display="none"/></g><g transform="translate(0,0)"><path class="background" aria-hidden="true" d="M0,0h468v182h-468Z"/><g><g class="mark-line role-mark marks" role="graphics-object" aria-roledescription="line mark container"><path aria-label="t: −3.14159265359; value: −0.164323475948; Species: Gentoo; sample: 41" role="graphics-symbol" aria-roledescription="line mark" d="M23.962,127.979L28.205,124.309L32.448,120.59L36.692,116.89L40.935,113.276L45.178,109.813L49.421,106.561L53.664,103.574L57.908,100.903L62.151,98.589L66.394,96.668L70.637,95.168L74.88,94.106L79.124,93.494L83.367,93.334L87.61,93.617L91.853,94.329L96.096,95.444L100.34,96.932L104.583,98.753L108.826,100.861L113.069,103.205L117.312,105.728L121.555,108.369L125.799,111.065L130.042,113.752L134.285,116.363L138.528,118.834L142.771,121.101L147.015,123.102L151.258,124.783L155.501,126.089L159.744,126.976L163.987,127.404L168.231,127.34L172.474,126.76L176.717,125.65L180.96,124.001L185.203,121.817L189.447,119.109L193.69,115.897L197.933,112.211L202.176,108.087L206.419,103.572L210.662,98.719L214.906,93.586L219.149,88.239L223.392,82.747L227.635,77.183L231.878,71.623L236.122,66.143L240.365,60.821L244.608,55.732L248.851,50.949L253.094,46.544L257.338,42.582L261.581,39.123L265.824,36.22L270.067,33.92L274.31,32.262L278.553,31.274L282.797,30.977L287.04,31.381L291.283,32.488L295.526,34.289L299.769,36.765L304.013,39.888L308.256,43.622L312.499,47.921L316.742,52.732L320.985,57.994L325.229,63.641L329.472,69.601L333.715,75.8L337.958,82.158L342.201,88.595L346.445,95.03L350.688,101.384L354.931,107.579L359.174,113.538L363.417,119.19L367.66,124.471L371.904,129.32L376.147,133.684L380.39,137.518L384.633,140.786L388.876,143.461L393.12,145.522L397.363,146.962L401.606,147.78L405.849,147.986L410.092,147.599L414.336,146.646L418.579,145.163L422.822,143.194L427.065,140.788L431.308,138.001L435.552,134.893L439.795,131.53L444.038,127.979" stroke="#e45756" stroke-width="2" opacity="0.5"/></g></g><path class="foreground" aria-hidden="true" d="" display="none"/></g><g transform="translate(0,0)"><path class="background" aria-hidden="true" d="M0,0h468v182h-468Z"/><g><g class="mark-line role-mark marks" role="graphics-object" aria-roledescription="line mark container"><path aria-label="t: −3.14159265359; value: −0.258919665129; Species: Gentoo; sample: 42" role="graphics-symbol" aria-roledescription="line mark" d="M23.962,131.805L28.205,129.108L32.448,126.342L36.692,123.553L40.935,120.783L45.178,118.075L49.421,115.468L53.664,112.997L57.908,110.698L62.151,108.597L66.394,106.72L70.637,105.085L74.88,103.709L79.124,102.6L83.367,101.762L87.61,101.193L91.853,100.887L96.096,100.832L100.34,101.011L104.583,101.404L108.826,101.984L113.069,102.722L117.312,103.588L121.555,104.545L125.799,105.559L130.042,106.591L134.285,107.603L138.528,108.557L142.771,109.417L147.015,110.148L151.258,110.716L155.501,111.091L159.744,111.246L163.987,111.159L168.231,110.812L172.474,110.189L176.717,109.284L180.96,108.093L185.203,106.617L189.447,104.864L193.69,102.848L197.933,100.587L202.176,98.103L206.419,95.424L210.662,92.583L214.906,89.616L219.149,86.561L223.392,83.462L227.635,80.36L231.878,77.303L236.122,74.336L240.365,71.504L244.608,68.852L248.851,66.425L253.094,64.263L257.338,62.404L261.581,60.884L265.824,59.733L270.067,58.977L274.31,58.636L278.553,58.727L282.797,59.259L287.04,60.235L291.283,61.654L295.526,63.507L299.769,65.779L304.013,68.451L308.256,71.496L312.499,74.884L316.742,78.579L320.985,82.54L325.229,86.724L329.472,91.084L333.715,95.57L337.958,100.131L342.201,104.716L346.445,109.272L350.688,113.747L354.931,118.09L359.174,122.254L363.417,126.192L367.66,129.862L371.904,133.225L376.147,136.248L380.39,138.901L384.633,141.16L388.876,143.007L393.12,144.43L397.363,145.423L401.606,145.986L405.849,146.124L410.092,145.848L414.336,145.177L418.579,144.131L422.822,142.739L427.065,141.032L431.308,139.046L435.552,136.818L439.795,134.39L444.038,131.805" stroke="#e45756" stroke-width="2" opacity="0.5"/></g></g><path class="foreground" aria-hidden="true" d="" display="none"/></g><g transform="translate(0,0)"><path class="background" aria-hidden="true" d="M0,0h468v182h-468Z"/><g><g class="mark-line role-mark marks" role="graphics-object" aria-roledescription="line mark container"><path aria-label="t: −3.14159265359; value: −0.129441064423; Species: Gentoo; sample: 43" role="graphics-symbol" aria-roledescription="line mark" d="M23.962,126.569L28.205,121.843L32.448,117.088L36.692,112.384L40.935,107.81L45.178,103.438L49.421,99.339L53.664,95.577L57.908,92.209L62.151,89.284L66.394,86.844L70.637,84.919L74.88,83.534L79.124,82.699L83.367,82.418L87.61,82.682L91.853,83.475L96.096,84.768L100.34,86.527L104.583,88.706L108.826,91.253L113.069,94.11L117.312,97.211L121.555,100.487L125.799,103.867L130.042,107.274L134.285,110.635L138.528,113.872L142.771,116.914L147.015,119.69L151.258,122.132L155.501,124.182L159.744,125.784L163.987,126.891L168.231,127.464L172.474,127.475L176.717,126.901L180.96,125.734L185.203,123.973L189.447,121.628L193.69,118.719L197.933,115.276L202.176,111.339L206.419,106.956L210.662,102.184L214.906,97.087L219.149,91.735L223.392,86.204L227.635,80.574L231.878,74.927L236.122,69.348L240.365,63.92L244.608,58.728L248.851,53.851L253.094,49.367L257.338,45.348L261.581,41.86L265.824,38.962L270.067,36.704L274.31,35.129L278.553,34.269L282.797,34.144L287.04,34.767L291.283,36.138L295.526,38.246L299.769,41.07L304.013,44.58L308.256,48.732L312.499,53.476L316.742,58.753L320.985,64.495L325.229,70.628L329.472,77.072L333.715,83.743L337.958,90.554L342.201,97.416L346.445,104.24L350.688,110.936L354.931,117.419L359.174,123.605L363.417,129.417L367.66,134.783L371.904,139.637L376.147,143.922L380.39,147.591L384.633,150.605L388.876,152.935L393.12,154.562L397.363,155.48L401.606,155.692L405.849,155.21L410.092,154.06L414.336,152.275L418.579,149.898L422.822,146.981L427.065,143.582L431.308,139.769L435.552,135.611L439.795,131.185L444.038,126.569" stroke="#e45756" stroke-width="2" opacity="0.5"/></g></g><path class="foreground" aria-hidden="true" d="" display="none"/></g><g transform="translate(0,0)"><path class="background" aria-hidden="true" d="M0,0h468v182h-468Z"/><g><g class="mark-line role-mark marks" role="graphics-object" aria-roledescription="line mark container"><path aria-label="t: −3.14159265359; value: −0.170591640122; Species: Gentoo; sample: 44" role="graphics-symbol" aria-roledescription="line mark" d="M23.962,128.233L28.205,126.7L32.448,125.096L36.692,123.45L40.935,121.792L45.178,120.15L49.421,118.548L53.664,117.013L57.908,115.566L62.151,114.225L66.394,113.009L70.637,111.929L74.88,110.996L79.124,110.216L83.367,109.593L87.61,109.124L91.853,108.805L96.096,108.63L100.34,108.587L104.583,108.662L108.826,108.838L113.069,109.096L117.312,109.416L121.555,109.774L125.799,110.147L130.042,110.51L134.285,110.838L138.528,111.107L142.771,111.293L147.015,111.373L151.258,111.326L155.501,111.134L159.744,110.778L163.987,110.246L168.231,109.527L172.474,108.613L176.717,107.501L180.96,106.189L185.203,104.682L189.447,102.987L193.69,101.114L197.933,99.078L202.176,96.897L206.419,94.592L210.662,92.187L214.906,89.709L219.149,87.185L223.392,84.648L227.635,82.129L231.878,79.66L236.122,77.275L240.365,75.007L244.608,72.887L248.851,70.948L253.094,69.218L257.338,67.725L261.581,66.494L265.824,65.546L270.067,64.901L274.31,64.573L278.553,64.573L282.797,64.908L287.04,65.581L291.283,66.589L295.526,67.929L299.769,69.588L304.013,71.553L308.256,73.805L312.499,76.323L316.742,79.081L320.985,82.05L325.229,85.2L329.472,88.496L333.715,91.905L337.958,95.388L342.201,98.909L346.445,102.431L350.688,105.916L354.931,109.327L359.174,112.63L363.417,115.791L367.66,118.779L371.904,121.566L376.147,124.127L380.39,126.438L384.633,128.483L388.876,130.246L393.12,131.717L397.363,132.891L401.606,133.764L405.849,134.338L410.092,134.62L414.336,134.62L418.579,134.351L422.822,133.831L427.065,133.078L431.308,132.116L435.552,130.97L439.795,129.666L444.038,128.233" stroke="#e45756" stroke-width="2" opacity="0.5"/></g></g><path class="foreground" aria-hidden="true" d="" display="none"/></g></g></g><path class="foreground" aria-hidden="true" d="" display="none"/></g></g></g></svg>